<svg xmlns="http://www.w3.org/2000/svg" xmlns:xlink="http://www.w3.org/1999/xlink" version="1.1" id="Layer_1" x="0px" y="0px" width="46px" height="37px" viewBox="0 0 46 37" style="enable-background:new 0 0 46 37;" xml:space="preserve"><style type="text/css">.st0{fill:#606060;}</style><g><path class="st0" d="M1.1 0h43.7c0.6 0 1.1 0.5 1.1 1.1v2.8c0 0.3-0.2 0.7-0.4 0.9L23.3 19c-0.4 0.3-0.9 0.3-1.3 0L0.5 4.5 C0.2 4.3 0.1 4 0.1 3.6V1.1C0.1 0.5 0.5 0 1.1 0z"/><path class="st0" d="M1.9 12.5l20.1 13.4c0.4 0.3 0.9 0.3 1.3 0l21-13.7c0.7-0.5 1.7 0 1.7 0.9v23c0 0.6-0.5 1.1-1.1 1.1H1.1 c-0.6 0-1.1-0.5-1.1-1.1l0.1-22.7C0.1 12.5 1.1 12 1.9 12.5z"/></g></svg>