<svg xmlns="http://www.w3.org/2000/svg" xmlns:xlink="http://www.w3.org/1999/xlink" version="1.1" id="Layer_1" x="0px" y="0px" width="46px" height="37.1px" viewBox="0 0 46 37.1" style="enable-background:new 0 0 46 37.1;" xml:space="preserve"><style type="text/css">.st0{fill:#606060;}</style><path class="st0" d="M33.2 5.4c0-4.3-1-5.3-5.2-5.3c-3.7 0-7.4 0-11.1 0c-2.4 0-4 1.6-4 4c0 9.2 0 18.4 0 27.6c0 4.3 1 5.3 5.2 5.3 c3.8 0 7.5 0 11.3 0c2 0 3.8-1.7 3.8-3.7c0-4.9 0-9.7 0-14.7h0C33.2 14.6 33.2 9.8 33.2 5.4z M23 35.5c-0.9 0-1.7-0.8-1.7-1.7 c0-0.9 0.8-1.7 1.7-1.7s1.7 0.8 1.7 1.7C24.7 34.7 23.9 35.5 23 35.5z M30 30.6H16v-26h14V30.6z"/></svg>