<svg xmlns="http://www.w3.org/2000/svg" xmlns:xlink="http://www.w3.org/1999/xlink" version="1.1" id="Layer_1" x="0px" y="0px" width="340px" height="340px" viewBox="0 0 340 340" style="enable-background:new 0 0 340 340;" xml:space="preserve"><style type="text/css">.st0{fill:#F1C244;}.st1{fill:#BFBFBF;}.st2{fill:#CADC59;}.st3{fill:#95A14B;}.st4{opacity:0.9;fill:#F27250;}.st5{opacity:0.5;fill:#95A14B;}</style><g><path class="st0" d="M268.2 85.6c0 8.3-0.7 35.6-0.7 44c-8.2-8.2-35.2-36.1-43.3-44.1C232.1 85.5 260.3 85.5 268.2 85.6z"/><path class="st1" d="M216.9 323.7c25.2-0.7 53.1 0.3 78-5.1c-2.2 9.2-15.6 11.5-24.2 11.5c-67.3 0-134.6 0-201.9 0 c-8.6 0-22.5-3-27.4-11.5c31.3 5.7 68.7 4.1 100.1 5.1C166.7 323.7 191.8 323.7 216.9 323.7z"/><path class="st2" d="M41.1 317.5c0-33.5 0-67 0-100.4c7.1 0.1 10.3 5.9 14.6 10c4.8 4.5 8.9 10 16.7 8.8c0 16 0.4 32 0 48 c-0.2 8.7 2.9 12 11.7 11.7c13.9-0.5 27.9-0.1 41.8 0c0.7 11.9 17.7 14.7 15.7 28.1c-31.5-1-63.1 2.8-94.4-2.9l0.1 0.1 C41.1 320.9 41.1 317.5 41.1 317.5z"/><path class="st2" d="M41.1 35c0-25.1 0-25.1 25.1-25.1c19.9 0 39.8 0 59.6 0c0.6 6.1 3.5 10.5 8.6 14c7 4.9 12.2 11.4 13.4 20.3 c-21.2 0.1-42.3 0.2-63.5 0.1c-6.9 0-12.7 0.4-12 9.5c-7.1-0.1-10.2-6-14.5-10.1C53 39.2 48.8 33.9 41.1 35z"/><path class="st2" d="M41.1 35c7.7-1.2 11.9 4.2 16.7 8.8c4.3 4.1 7.5 9.9 14.6 10.1c0 31.4 0 62.8 0 94.2c-7 1-11.1-3.5-15.6-7.7 c-4.7-4.4-8-10.9-15.7-11.1C41.1 97.8 41.1 66.4 41.1 35z"/><path class="st2" d="M147.8 44.3c-1.2-8.9-6.4-15.4-13.4-20.3c-5.1-3.6-8.1-7.9-8.6-14c32.4 0 64.9 0 97.3 0 c-0.1 11.6-0.1 23.1-0.2 34.7C197.9 44.5 172.9 44.4 147.8 44.3z"/><path class="st2" d="M41.1 129.2c7.7 0.2 11 6.7 15.7 11.1c4.5 4.3 8.6 8.8 15.6 7.7c0 29.3 0 58.6 0 87.9 c-7.7 1.2-11.9-4.3-16.7-8.8c-4.3-4.1-7.5-9.9-14.6-10C41.1 187.8 41.1 158.5 41.1 129.2z"/><path class="st0" d="M72.4 235.9c0-29.3 0-58.6 0-87.9c0-31.4 0-62.8 0-94.2c-0.6-9.1 5.2-9.5 12-9.5c21.2 0.1 42.3 0 63.5-0.1 c25 0.1 52.2 0.2 77.3 0.4c-0.7 12.4-1.2 27.8-1.2 40.8c15.3 15.3 28.3 28.2 43.2 43.1c0.1 1 0.2 2 0.2 3.1 c0 36.9-0.1 73.7-0.1 110.6c0 14-0.5 27.9 0 41.9c0.3 8.8-3.1 11.8-11.7 11.7c-18.1-0.4-36.2-0.1-54.3 0c-25.1 0-50.2 0-75.3 0 c-13.9 0-27.9-0.4-41.8 0c-8.8 0.3-11.9-3.1-11.7-11.7C72.8 267.9 72.4 251.9 72.4 235.9z"/><path class="st2" d="M292.4 320.7c-25 5.4-50.3 2.3-75.5 2.9c-1.7-11.3-15.8-15.7-15.7-28c18.1 0 36.2-0.4 54.3 0 c8.7 0.2 12-2.9 11.7-11.7c-0.5-13.9 0-27.9 0-41.9c6.9-1 11.1 3.5 15.5 7.7c4.6 4.4 8 10.8 15.5 11.2c-1.4 18.8 3.8 38-2.8 56.5 C295.5 317.6 294.7 320.4 292.4 320.7z"/><path class="st2" d="M298.3 261.1c-7.5-0.4-10.9-6.8-15.5-11.2c-4.5-4.2-8.6-8.7-15.5-7.7c0-36.9 0.1-73.7 0.1-110.6 c13.2 5.2 18.7 19.7 31.1 25.8C298.4 191.9 298.3 226.5 298.3 261.1z"/><path class="st2" d="M298.4 157.3c-12.4-6.1-17.9-20.6-31.1-25.8c0-1-0.1-2.1-0.2-3.1c0-14.3-0.1-30.7-0.1-44.9 c28.2 0 30.5 2.3 31.5 1.4C298.5 98.9 298.4 143.3 298.4 157.3z"/><path class="st2" d="M216.9 323.7c-25.1 0-50.2 0-75.3 0c2-13.4-15-16.2-15.7-28.1c25.1 0 50.2 0 75.3 0 C201.1 308 215.2 312.4 216.9 323.7z"/><polygon class="st2" points="223.1,10.3 223.1,86.2 298.5,86.2"/><path class="st3" d="M179.8 113c14.2 0 28.9 5.9 38 15.3c8.7 9 14.1 21.3 14.1 34.8l-52.1-0.1V113z"/><path class="st4" d="M170.2 173l-0.1-49.5l-0.5-0.5c-27.7 0-50.1 22.4-50.1 50.1s22.4 50.1 50.1 50.1c27.7 0 50.1-22.4 50.1-50.1 l0 0L170.2 173z"/></g><path class="st5" d="M298.5 86.2c0 14-0.2 59.5-0.2 73.5c-13.8-13.8-61.5-59.9-75.1-73.5C236.5 86.3 285.1 86.1 298.5 86.2z"/></svg>