<svg xmlns="http://www.w3.org/2000/svg" xmlns:xlink="http://www.w3.org/1999/xlink" version="1.1" id="Layer_1" x="0px" y="0px" width="301.4px" height="303.5px" viewBox="164.3 -126.8 301.4 303.5" style="enable-background:new 164.3 -126.8 301.4 303.5;" xml:space="preserve"><style type="text/css">.st0{fill:#95A14B;enable-background:new    ;}.st1{fill:#B59233;enable-background:new    ;}.st2{fill:#F1C244;enable-background:new    ;}.st3{fill:#CADC59;enable-background:new    ;}</style><g><path class="st0" d="M313.7 111.3l-86.8-86.9h-52.8v50.9c0 4.5 1.8 8.8 5 12l77.7 77.8c2.3 2.3 6 2.3 8.4 0L313.7 111.3z"/><g><path class="st1" d="M316.5-61.5l86.6 86.2h52.8v-50.9c0-4.5-1.8-8.8-5-12l-76.4-77.1c-2-2-5.2-2-7.2 0L316.5-61.5z"/><path class="st2" d="M174.3 25.5h107.6L260.6 4.2c-2.7-2.7-2.7-7.2 0-9.9l111.2-111.2H265.8c-2.9 0-5.6 1.1-7.7 3.2l-50.3 50.3 c-2.8 2.8-7.4 2.8-10.2 0L174.1-87L174.3 25.5z"/></g><path class="st3" d="M455.7 24.5H348.1l21.2 21.2c2.7 2.7 2.7 7.2 0 9.9L258.1 166.9h106.1c2.9 0 5.6-1.1 7.7-3.2l50.3-50.3 c2.8-2.8 7.4-2.8 10.2 0l23.6 23.6L455.7 24.5z"/></g></svg>