<svg xmlns="http://www.w3.org/2000/svg" xmlns:xlink="http://www.w3.org/1999/xlink" version="1.1" id="Layer_1" x="0px" y="0px" width="340px" height="340px" viewBox="0 0 340 340" style="enable-background:new 0 0 340 340;" xml:space="preserve"><style type="text/css">.st0{fill:#F1C244;}.st1{fill:#CADC59;}.st2{fill:#F27250;}.st3{opacity:0.9;fill:#B42A0F;}.st4{fill:#95A14B;}</style><g id="Design_2_"><path class="st0" d="M162.1 10.9c2.1-1.5 4.3-1.7 6.5-1.7c2.2 0 4.5 0.1 6.7 1.7c8.9 5.6 17.8 11.3 26.8 16.8 c45.7 27.9 91.5 55.8 137.2 83.7c0 2.6 0 5.3 0 7.9c-14.1 6.2-26.6 15.1-39.3 23.8c-37.8 23.1-75.8 45.8-113.2 69.5 c-12.1 7.7-21.5 7.7-33.6 0c-37.4-23.7-75.4-46.4-113.2-69.6c-12.6-8.7-25.2-17.4-39.2-23.7c0-2.6 0-5.3 0-7.9 c41.9-25.5 83.8-50.9 125.5-76.7C138.4 27.2 150.5 19.7 162.1 10.9z"/><path class="st1" d="M177.9 329.3c-4 2-10.6 1.8-15.9 0c-5.6-4-12.3-7.7-18.9-11.8c-47.4-29.2-95-58.1-142.5-87.1 c0-2.6 0-5.3 0-7.9c6.9-3.7 13.8-7.3 20.7-11c1.7 1.4 3.2 3.1 5 4.2c44.1 27.3 88.4 54.6 132.4 82c8.2 5.1 15.6 4.3 23.4-0.7 c15.6-9.8 31.7-19.1 47.2-29.1c29.5-19.1 60.8-35.5 89.1-56.4c6.9 3.6 13.8 7.3 20.7 10.9c0 2.6 0 5.3 0 7.9 c-1.6 0.6-3.3 1-4.7 1.9c-50.4 31.1-100.9 62.2-151.3 93.3C181.1 327 181.1 327 177.9 329.3z"/><path class="st2" d="M286.8 206.2c-34.1 21-68.4 41.8-102.3 63.3c-10.3 6.5-19.1 6.8-29.2 0c-12.4-8.4-25.3-16.1-38.2-23.7 c-25.7-15.2-49.4-30.1-77-45.8c-14.5-9-25.6-17.9-39.5-25.1c0-2.6 0-5.3 0-7.9c6.2-3.4 12.4-6.7 18.5-10.1c1.6 1.5 2.9 3.4 4.7 4.5 c44.8 27.8 89.6 55.3 134.3 83.2c9.3 5.8 17.2 4 25.7-1.3c23.8-14.9 48-29.2 71.6-44.4c21.7-14 45.2-25.3 65.1-41.9 c6.2 3.4 12.4 6.7 18.5 10.1c0 2.6 0 5.3 0 7.9"/><path class="st3" d="M19.3 156.9c6.9-4.6 13.8-9.2 20.7-13.8c37.8 23.1 75.8 45.8 113.2 69.6c12.1 7.7 21.5 7.7 33.6 0 c37.4-23.8 75.4-46.4 113.2-69.5c6.9 4.6 13.8 9.2 20.7 13.8c-21.5 17.9-41.8 27-65.1 41.9c-23.7 15.1-47.8 29.5-71.6 44.4 c-8.5 5.3-16.4 7.1-25.7 1.3c-44.7-27.9-89.6-55.5-134.3-83.2C22.2 160.3 20.8 158.4 19.3 156.9z"/><path class="st4" d="M21.4 211.6c5.7-4.8 11.9-8.7 18.8-11.5c27.1 12.8 51.3 30.6 77 45.8c12.9 7.6 25.8 15.3 38.2 23.7 c10.1 6.8 18.9 6.5 29.2 0c33.9-21.4 68.1-42.3 102.3-63.3c4.1-2.5 6.8-3.8 11.9-7.2c6.8 2.9 14.1 7.8 19.8 12.6 c-28.3 21-59.6 37.3-89.1 56.4c-15.5 10-31.5 19.3-47.2 29.1c-7.8 4.9-15.2 5.7-23.4 0.7c-44.1-27.4-88.3-54.6-132.4-82 C24.6 214.7 23.1 213 21.4 211.6z"/></g></svg>