<svg xmlns="http://www.w3.org/2000/svg" xmlns:xlink="http://www.w3.org/1999/xlink" version="1.1" id="Layer_1" x="0px" y="0px" width="1452.5px" height="1455.1px" viewBox="0 0 1452.5 1455.1" style="enable-background:new 0 0 1452.5 1455.1;" xml:space="preserve"><style type="text/css">.st0{opacity:0.2;fill:#F05638;}</style><path class="st0" d="M1072.2 93.3C970.9 36.2 854.3 5.9 738.1 9.8c-61.1 2-120.4 15.7-179.7 29.1c-63 14.2-125 32.4-182.1 63 c-56.9 30.4-108.7 70.8-150.1 120.2c-19.9 23.8-37 49.2-57.9 72.2c-22.7 25.1-42.3 53.4-60.7 81.7C36.7 484.8 0.1 610.3 4.1 740.6 c7.6 251 154.1 480.5 377.4 595.8c61.2 31.6 120.6 64.7 187 84.4c53.9 16 110.1 24.6 166.3 24.7c56 0.2 112.1-8.1 165.3-25.2 c27.4-8.8 54-19.9 79.6-33.1c28.6-14.7 54-34.5 84.4-45.4c120.3-42.9 219.8-147.4 283.8-254.6c64.5-108.1 100-233.4 100.8-359.5 c1.4-220.8-110-435.3-283-571.8C1136.2 132.7 1104.9 111.7 1072.2 93.3z M964.5 80.4c83.3 40.3 158.7 96 225.3 160 c-34.6-25.7-73.4-43.6-107.1-70.3c-34-27-70.2-51.2-108.5-71.8C897.9 57.2 813.6 31.7 727 26.8C809.2 20.6 891 44.8 964.5 80.4z M1352.2 759.6c-3.7 56.8-36.9 119.5-67.2 166.2c1.3-12.8 9.2-23.2 14.7-34.4c7.4-15 13.7-30.6 18.7-46.6 c9.2-29 14.5-59.2 16.5-89.6c3.8-57.2-4-114.8-19.2-170.1C1339.8 639.8 1356.2 699.5 1352.2 759.6z M1382.1 647.9 c8.4 34.6 13 63.8 4.2 98.5C1385.3 713.2 1380.9 681.1 1382.1 647.9z M1372.4 768.4c0 9.9 1.1 20.6-2.5 29.9 C1370.5 788.2 1370.9 778.4 1372.4 768.4z M1095.1 1259.7c-18.8 14.8-33.5 22.3-57 27.4c35-25.5 67-55 95.3-87.7 c13.6-15.8 25-36.9 41.3-49.7c16.9-13.2 33.1-27.4 48.3-42.5c-13.3 29.9-26.8 55-49.1 79.3 C1149.8 1213.1 1123.3 1237.5 1095.1 1259.7z M1143 1237.4c-9.6 11.6-17.1 21.1-31.1 26.8C1122.5 1255.5 1132.9 1246.6 1143 1237.4z M1094.3 1285.9c-19.4 12.2-39.5 23.3-60.2 33.1C1054.1 1307 1072.1 1293.7 1094.3 1285.9z M479.4 1328.5 c69.7 32.2 144.7 52.7 221 60.3c-159.8 7.1-313.5-74.9-425-185.3C338 1253.3 406.9 1294.9 479.4 1328.5z M647.7 1367.2 c-117.9-21.5-228.9-76.5-325.9-146c-42-30.1-95.5-65.1-120-111.7c-26.7-50.8-45.8-105.4-56.7-161.6c34.2 60.5 53.1 125 98.3 179.6 c47.4 57.1 109.9 100.6 178.1 129c31.2 13 56.3 40.8 86.1 58c32.3 18.5 67.1 32.5 103.3 41.1c32.7 7.8 66.4 11.4 100 11.3 c17.8-0.1 36.4-3.7 54.1-1.8c15.6 1.6 30.5 7 46 9.2C757.5 1385.7 701 1376.9 647.7 1367.2z M929.9 134.4 C828.1 92 717.1 69.8 606.9 76.9c123.9-21.3 252.5 6.9 363 65.3C956.6 139.2 943.3 136.5 929.9 134.4z M1025.8 175 c13.5 8.8 26.7 18.1 39.5 27.8c-26.4-14.7-53.4-28.2-80-42.3C999.3 164 1013.6 167 1025.8 175z M1150.5 287.7 c-13.8-10.9-25.4-24-38.2-36c30.3 17.9 54.1 42 76.5 68.9C1176.5 309.2 1163.7 298.1 1150.5 287.7z M1019.6 206.4 c17.1 6.6 33.1 13 47.4 24.5C1051.6 222.1 1035.8 213.9 1019.6 206.4z M1237.2 1072.1c-13.9 15.5-28.7 30.2-44.2 44 c9-15.3 17.5-31 25.1-47c7.3-15.6 22.1-26 32.8-39.1C1246.8 1044.2 1242.3 1058.2 1237.2 1072.1z M1268.5 1056.9 c-8.8 15.6-18.2 31-28.2 45.9C1248 1084.4 1256.2 1072.4 1268.5 1056.9z M842.3 1258.1c-57.5 4.2-112.7 4.6-166.3-19 c46.4-1.5 92.1-6.1 138.6-6.7c50-0.7 100.4-8.7 148.6-21.5C924.5 1230.4 884 1246.1 842.3 1258.1z M912.5 1263.5 c-23.8 11.4-51.1 11.7-77.3 11.4C860 1268.2 887 1268 912.5 1263.5z M849.1 1289c-6.4 2.1-10 1.2-16.6 0 C838 1289.1 843.5 1289.1 849.1 1289z M496.5 158.5c6.4-1.5 12.8-3 19.2-4.3c-8.8 3.7-17.6 7.7-26.1 12 C491.9 163.6 494.2 161 496.5 158.5z M446.8 157.9c15.2-6.3 30.7-11.9 46.4-16.9C483.3 151.7 460.8 153.3 446.8 157.9z M511.2 177.2 c30.8-10.5 62.7-17.9 95-22.1c-59.8 16.2-117.5 40.8-168.9 75.3c8.1-11 14.9-23.4 25.5-32.4C475.4 187.5 495.8 182.5 511.2 177.2z M865.3 173c51.4 8.5 95.4 23.2 137.9 53.8c43.6 31.4 83.3 68.2 117.9 109.3c-20.3-13.8-42.1-25.2-62.5-38.8 c-21.7-14.6-41.1-32.1-62-47.8C956.1 218.8 912.1 192.6 865.3 173z M826.7 152.1c-18.1-0.8-33.3-4.1-51-8.4 c34.2-1.1 67.7-0.5 99.6 12.4C859.1 154.2 842.9 152.8 826.7 152.1z M1292.2 943.5c-3.6 6.5-7.7 12.6-12 18.8 C1281.4 954.6 1287.7 949.3 1292.2 943.5z M1255.4 965.9c2.5-9.4 8-15.6 13.5-23.6C1267.6 952.1 1262 958.6 1255.4 965.9z M1249.1 931.2c-4.2 20.5-13.2 32-26.8 47.7c4.7-18 13.2-34.8 19-52.5c5.6-17.3 6.7-36.6 16.6-52.3 C1255.9 893.3 1253 912.3 1249.1 931.2z M1163.9 1037.8c-35.9 31.5-70.6 54.3-115.7 70.2c61.4-45.8 105.2-107 155.6-163.5 C1193.9 976.9 1182.4 1009.4 1163.9 1037.8z M1223.1 1020.7c-4.4 11.7-9.2 23.4-14.4 34.8c-8.7 8.9-17.8 17.4-27.2 25.6 c6.2-11.5 12.1-23.2 17.4-35.2C1203.8 1034.8 1214.2 1028.8 1223.1 1020.7z M612.6 1194.8c-20.8-5.6-35.2-12.3-52.2-25.5 c67 29.6 140.8 42.5 213.7 38.8C718.6 1214.6 666.6 1209.3 612.6 1194.8z M677.3 1224.9c-14.1 0.5-26.9 2.3-39.5-4.5 C650.9 1222.6 664.1 1224 677.3 1224.9z M387.9 1144c-13-8.3-27.7-14.7-38.6-26c-13.9-14.4-20.3-40.7-26.8-59.2 C342.1 1088.8 364 1117.3 387.9 1144z M598.5 1283.9c-23.4-1.9-43.3-17.6-62.6-30.4C556 1265.1 576.9 1275.4 598.5 1283.9z M460.3 305.5c-18.4 20.9-36.6 44.9-48 70.5c-4.4 9.8-7.4 21.5-15.2 29.4c-10.1 10.2-26.5 16.7-38.2 25.2 c10.6-26.5 24.1-51.9 40.4-75.5C416.2 330.7 433.9 319.1 460.3 305.5z M395.4 293.6c6.6-11.2 8.5-15 21-18.2 C409.3 281.4 402.3 287.5 395.4 293.6z M494.2 291c17.2-15.8 51.4-22 73.4-28.6c-32.1 17-62.2 37.9-88.9 62.5 c-13.6 12.5-26.2 26-37.8 40.4c-6.2 7.7-13.2 24.8-22.2 29.3C437.3 355.9 462.5 320.2 494.2 291z M453.9 292.8 c16.8-15.4 33.3-31.4 56.8-33.7C492.1 272.8 474.5 282.2 453.9 292.8z M991.2 282.8c26.9 10.8 51 21.5 71.4 42.7 c20.2 21.1 39.5 42.8 57.2 66c36.6 48 66.8 100.7 89.8 156.3C1157.6 445 1083.8 352.2 991.2 282.8z M936 245.8 c6.7 2.9 13.4 6 20 9.1C948.6 252.4 942.7 249.6 936 245.8z M1206.1 876.1c-9.6 26.1-21.6 51.4-35.6 75.3 c-13.7 23.3-32.2 39.6-53 56.8c11.1-18.3 20.5-37.6 28.2-57.5c12.3-17.3 23.2-35.6 32.6-54.6c19.7-39.7 32.8-82.6 38.9-126.5 c2.6 16 7 32.3 5.4 48.6C1220.7 837.6 1212.8 857.9 1206.1 876.1z M1218.6 883.3c-3.5 19.2-6.8 30.5-19.6 45.3 C1206.3 913.8 1212.9 898.7 1218.6 883.3z M1080.9 1036.5c-7.5 5.4-15.1 10.7-22.7 15.7c14.5-12.2 28-25.6 40.2-40.1 C1092.9 1020.6 1087.1 1028.7 1080.9 1036.5z M1112.1 1030.7c-16.3 18-33.9 34.8-52.6 50.3 C1077.4 1063.6 1092.5 1046.1 1112.1 1030.7z M893.4 1090.3c22.7-13.1 49.2-17.5 73.8-26c29.6-10.2 57.7-26.7 82.4-45.7 c48.7-37.5 84.4-90 102.7-148.5C1133.2 994.9 1011.4 1073.6 893.4 1090.3z M972 1129c-23.4 4.7-47 8.1-70.8 10.2 c49-12.9 95.8-33.5 139.2-59.2C1019.5 1098.8 996.5 1115.2 972 1129z M1035.1 1127.1c-22.2 12.1-45.6 21.8-69.1 31 C989.4 1146.8 1010.2 1134.9 1035.1 1127.1z M279.3 925.9c1.1 10.9 2.4 21.8 4 32.7c-8.9-19.7-16.8-39.8-23.6-60.3 C267.1 906.9 274.8 915.3 279.3 925.9z M504.8 1080.8c-21.9-8-52.1-17-66.7-35.8c11.4 6.7 22.9 13 34.6 19.1 C483.2 1069.7 496 1072.4 504.8 1080.8z M410.1 1031.7c-7.8-5.4-15.4-10.4-21.2-17.9C396.6 1019.1 404.6 1023.9 410.1 1031.7z M357 964.5c-20.1-35.7-35.5-74-45.8-113.7c19.3 49.7 44.3 97 72.8 142C373.1 985 363.7 976.4 357 964.5z M323.3 943.6 c-7.8-7.1-8.9-11.8-11.1-21.9C315.8 929 319.5 936.3 323.3 943.6z M290.9 880.5c1.1 8.8 2.6 17.5 4.1 26.2 C290.3 898.6 291.1 889.7 290.9 880.5z M261.3 878.5c-17.9-21.8-20.8-49.6-24.9-77C243.4 827.5 252.7 852.9 261.3 878.5z M276.4 870.9c-23.7-51.1-30.7-108.4-34.4-163.9C251.7 762.1 275.8 815.2 276.4 870.9z M216.2 709.2c-0.9 41.8 3.2 83.6 11.6 124.5 c-10.4-15.4-23.1-30.3-28.3-48.4c-6.3-21.9-2.1-49.9-0.4-72.4c3.9-49.9 14.2-99.3 30.5-146.6C229.3 614.5 217.2 661.2 216.2 709.2z M174.7 769.7c11.5 23.9 11 47 14.7 73.1c-19.5-43.1-33.6-88.8-40.1-135.6C156.5 728.6 165 749.4 174.7 769.7z M200.4 817 c8.2 13.6 17 26.7 26.4 39.6c9.7 13.4 13.1 26.3 18.1 41.9c10 30.8 22.7 60.7 37.1 89.7c-22.1-25.9-42.7-53.7-59.7-83.2 C206.7 878.2 203.4 847.3 200.4 817z M299.3 967.8c14.7 27.9 30 55.2 44.4 83.2C316.4 1026.8 305.3 1003.4 299.3 967.8z M409.9 1006.2c-29.2-42.8-54.8-88.3-75.4-135.7c-10.2-23.5-18.3-47.7-26.8-71.9c-8.9-25.6-4.1-50.5 0.8-76.5 c5 58.2 26.7 114.3 60.4 162c17.9 25.4 28 55.4 44.2 82c18.1 29.6 38.9 57.5 61.8 83.5C453.9 1038.4 423.8 1026.5 409.9 1006.2z M329.7 645.8c3.7-10.1 7.7-20 12-29.8c-2.4 54.9 12.4 107.1 15 161.4C342.7 734.7 333.4 690.5 329.7 645.8z M297.8 697 c1.4-16.8 3.7-33.5 6.9-50C307.3 665.7 302.4 678.8 297.8 697z M902.2 345.3c-12.2-7-24.7-13.3-37.7-18.7c36 6 70.9 17.9 102.5 36.2 c31.3 18.2 66.1 35.9 87.5 66.3C1009.9 391.6 956.9 364.9 902.2 345.3z M814.1 1078.8c-58.1 0.6-115.6-6-167.7-33 c45.7 10.3 93.2 12.9 139.7 7.7c46.1-5.1 93.3-0.2 138.7-11C889.5 1063.5 855.7 1078.3 814.1 1078.8z M861.4 1090.1 c-4.5 1.7-8.9 3.7-13.7 3.7C852.1 1092 856.7 1090.8 861.4 1090.1z M582.1 1096.4c-17.9-6.3-35.5-13.2-52.9-20.7 c-19.8-8.6-31.9-22.2-45.8-38.1c-27.7-31.9-52.6-66.4-72.5-103.7c26 26.3 47.1 56.9 72.6 83.7C512.5 1048 546 1074.8 582.1 1096.4z M480.3 991.8c36.2 24.7 75.5 44.8 116.4 60.5c19.6 7.6 35.9 21.2 54.1 31.2c19.4 10.7 40 19 61.4 24.6c-19.3 1.5-38.9 3.6-58.2 0.5 c-23.6-3.8-46.2-17.2-66.5-29.1C547.5 1056 511.6 1025.9 480.3 991.8z M384.3 847.6c-7.8-16.7-11.1-34.5-12.7-52.7 c18.2 48.2 43.9 93.8 77.2 133.2c18.2 21.5 38.7 41.1 61.4 57.7c22.9 16.6 51.5 25.2 71.7 45.5c-42.4-18.1-82-41.2-118.7-69.1 C426.4 934.1 403.7 888.9 384.3 847.6z M366.4 854.9c-21.4-35.6-35.9-75.4-41.8-116.5C336.3 777.7 357.9 815.1 366.4 854.9z M670.1 326.7c-33.7 15.4-77.3 12.8-113.5 20.5C587.5 328.1 634.5 325.2 670.1 326.7z M582.1 316.5c30.6-19.2 62.5-31.5 94.7-35.9 C644 289 612.3 301.1 582.1 316.5z M863.7 394c19.6 2.5 36.7 18.9 51.5 30.9c19.4 15.6 37.5 32.7 54.3 51 c-19.3-14.3-40.4-25.3-59.4-40.1c-21.5-16.6-44.4-31.4-68.5-43.9C849 392.4 856.3 393.1 863.7 394z M813.3 363.3 c1.7-0.6 3.2-0.4 4.7 0.7C816.4 363.8 814.8 363.6 813.3 363.3z M754.3 358.6c-24.6-6.1-49.9-9.8-75.2-10.6 c32.6-7.9 76 0.6 108.8 5.1C776.7 355.5 765.8 358.8 754.3 358.6z M813.6 377.6c-1.4 0.4-2.7 0.2-3.9-0.6 C811 377.2 812.3 377.4 813.6 377.6z M547.9 967.3c-12-17.9-22.5-36.8-31.7-56.3c67.5 62.9 150.6 110.7 241 130.6 c-37.8 1.6-75.9-1.9-112.8-10.7C602.6 1020.9 572.4 1003.8 547.9 967.3z M520.7 950.1C460.5 886 415 807.7 391.7 723 c14.3 40.5 34.2 79 59.2 114c11.8 16.5 24.6 32.3 38.5 47.1C498.2 906.9 508.5 929 520.7 950.1z M666.5 996.1 c-41.9-19.4-81.1-44.6-116.6-74.1c-17-14.2-33.2-29.3-48.4-45.4c-8-21-14.5-42.5-19.7-64.4c37.8 61.2 88.6 115.5 151.8 150.9 c32.9 18.4 68.7 30.5 103.3 44.8c32.5 13.4 67.4 20.9 102.4 21.5C783.5 1044 717.4 1019.6 666.5 996.1z M636.9 398.3 c18.2 0.7 36.3 3.3 53.9 7.7c-10.3 10.2-31.9 5.6-46.6 8.1c-15.7 2.6-31 7.4-45.3 14.5c-15.8 7.8-30.1 18.7-40.8 32.8 c-9.4 12.3-14.6 26.4-25.1 38.1c8.7-25.4 19.7-52.6 40.8-70.1C591 415.1 613.4 397.4 636.9 398.3z M559.2 392.8 c6.6-5.2 13.8-9.3 21.5-12.5C573 386.6 568.8 390.3 559.2 392.8z M698.3 393.4c-14.1-3.7-28.5-6.3-43-7.8 c25.8-8 52.7-11.8 79.6-12.7C725.2 378.2 710.8 396.6 698.3 393.4z M753.9 379.3c9.3-4.2 16.9-1.7 26 1.4 c-17.4 2.6-34.6 6.7-51.2 12.5C736.7 387.9 745.1 383.2 753.9 379.3z M829.3 444.2c41.6-2.6 82.2 8.4 112.1 37.6 c32.8 32.1 61 69.1 82.2 109.8c21.1 40.5 35.3 84.9 39.4 130.4c3.4 38.2 3.7 91.4-17.5 125c14.5-79 0.3-178.6-38.3-249.6 C969.2 527.6 902.2 474.2 829.3 444.2z M921.9 517.6c55.9 47.9 90.8 108 104.3 180.1c6.9 36.8 11.2 75.5 9.3 113 c-0.9 17.3-3.4 34.7-7.4 51.6c-4.9 20.6-22.9 34.6-38.8 47.2c0.6-13.3 0.5-26.6-0.3-39.9c-0.9-15.1 1.6-19.8 8.2-32.9 c9.6-19 16.4-39.4 20.1-60.4c7.4-41.9 2.4-85.7-14.2-125.1c-19.2-45.6-53.1-84.8-94.2-112.4c-9.9-6.6-20.3-13.2-31.3-17.8 c-9.1-3.8-20.2-6.7-26.7-14.6c-17.4-20.9-37.2-39.8-59.6-55.3c19.4-5.8 40.8 8.3 57 17.1C874.5 482.5 899.2 498.2 921.9 517.6z M700.1 939.9c66.8 26.5 136.3 51.6 209.4 46.9c-44.2 15-92.2 16.3-138.2 9.3c-56.6-8.7-99.4-37.2-138.2-78.7 C654.8 927 678.2 931.2 700.1 939.9z M598.4 874.8c9.8 9 20.1 17.4 30.7 25.3C615.5 893.4 607.2 887.2 598.4 874.8z M515.2 611.7 c0.1-32.6 0.7-68.9 22-95.3c-1.7 17-0.1 34.1 3.4 50.8c3 14.2-3.8 27.9-7.9 41.2c-9.8 31.5-11.3 66.9-6.9 99.5 C514 680.4 515.1 641.1 515.2 611.7z M501.3 625.7c-2.2-13.8-2.8-24.9 0.6-38.5C501.1 600 500.9 612.9 501.3 625.7z M499.3 551 c2.5-21.9 10.3-42.1 22-60.7C513.9 511 508.2 531 499.3 551z M829 524.9c-49.5-27-111.5-18.5-153.4 18 c13.1-20.2 21.7-26.8 45.2-30.9c18.5-3.2 37.5-4.3 56.3-3.2c19.4 1.1 38.6 4.5 57.3 10.1c17.6 5.3 24.9 21.3 34.1 36.1 c-6-1.9-10.6-8.6-14.8-12.9C846.7 535.1 837.6 529.6 829 524.9z M721.9 801.6c14.2 5.2 29.3 8 44.4 8.4 c13.4 9.1 27.7 17.2 42.8 23.2c-65.9 21.4-125.4-25.8-154-81.7C677.8 770.6 692.9 791 721.9 801.6z M830.1 839.6 c6.3 1.4 12.6 2.2 19 2.2c-18.9 9.7-40.8 12.7-61.9 10.1C802.2 850.7 816.9 846.7 830.1 839.6z M752.2 781.8 c-24.4-20.4-46.6-44.5-61.8-72.6c-6.1-11.2-26.8-48.3-7.6-56.9c-4.6 25 4.2 50.5 19.7 70.3c20.5 26.2 52.8 34.5 72.1 60.4 C767.1 783.4 759.6 782.9 752.2 781.8z M850.1 692.2c5.4 6.4 8 11.7 7.4 20.3C849.8 704.6 851.5 702.6 850.1 692.2z M821.5 685.3 c12.3-4.6 13.1-2.4 14.7 9.6C831.4 691.5 826.5 688.3 821.5 685.3z M807.7 676.1c-5 2.8-16.4-6.1-21.6-7.2 c5.5-22.8 29.1-8.9 40.7 0.4C820.1 670.4 813.6 672.8 807.7 676.1z M808.9 773c-11.9 7.6-17.4 9.4-25.3-1.6 C792 773 800.5 773.6 808.9 773z M696.8 678.6c5.6 13.9 13.3 26.9 23 38.4c8 9.4 26.3 17.4 31.3 28.1 C725.5 731.2 702.3 707.9 696.8 678.6z M823.6 780c-0.9 0.7-1.7 1.3-2.6 1.9C821.8 779.9 822.7 779.3 823.6 780z M769.7 750.2 c10.7 2.9 22.8 0.1 30.8 8.8C791.4 758.8 775.1 759.6 769.7 750.2z M742.8 720.2c-14.7-10.3-24.9-26.5-31.7-42.8 c-3.4-8.2-6.1-16.8-7.8-25.6c-2-10.7 11.4-9 20.1-10C722.2 670.7 737.9 692.9 742.8 720.2z M683.1 636.7c1.4-3.3 2.9-6.6 4.6-9.7 C690.1 633.1 688.5 636.4 683.1 636.7z M767 669c-8.7 3.3-15.6 10.8-20 18.7c-3.4-7.6-16.6-39.6-8.1-46.4c8.8-7 38.8 0.9 48.5 2.6 C775.4 649.8 777.3 665 767 669z M794.5 686.7c-3.9 4.3-7 9.3-9 14.6c-0.7-6.1-1-12.2-0.9-18.4C787.9 684 791.2 685.3 794.5 686.7z M725.4 627.3c-6.5 0.6-13 1.6-19.4 2.9c7-12.4 30.9-42.2 48.4-39.1C738.6 597.2 729.1 611.3 725.4 627.3z M759 708.4 c-6.9-9.6 4.2-20.4 11.6-25.3c-0.4 19.6 3.8 38.7 14.4 55.5C782.6 738.3 762.5 713.4 759 708.4z M811.5 750.1 c7.2-1.9 14.1-4.6 20.7-8C827.8 754.6 821.7 761.3 811.5 750.1z M838.1 765.4c-0.9 1.2-3.1 5.5-4.7 4.3 C834.2 767.4 835.8 766 838.1 765.4z M862.1 752.7c5.6 16.3 6.9 36.3-15.6 25.1C852.9 770.3 858.1 761.8 862.1 752.7z M826.6 729.5 c-4.9 2.5-20.3 11.3-25.7 7c-8.6-6.9-5-25.3-0.6-33.5c8.7-16.1 19.1-2.5 30.7 5.1C842.2 715.6 835.7 724.8 826.6 729.5z M850.5 725.9c2.3 6.9 2.6 7.3-2.6 13.6C849 735.1 849.9 730.6 850.5 725.9z M869.1 732.3c1.3-2.7 2.5-5.4 3.5-8.2 c5.1 8.8 6.1 15.9 3.4 25.7C874 743.8 871.6 738 869.1 732.3z M876.5 703.8c-0.1-11.2-5.9-21.3-8.5-32c12 6.8 11.5 25.9 12.2 37.6 C879 707.5 877.7 705.6 876.5 703.8z M841.8 659.2c7.7 3.1 9.3 4 11.5 12C845.9 668.5 844.4 666.4 841.8 659.2z M814.6 635.4 c-24.3-6.4-49.3-9.6-74.4-9c3.9-12.1 16-23.1 28.5-25.6C788.3 596.9 805.5 621.2 814.6 635.4z M835.1 605.7 c14.3 13.7 24.6 30.8 31.6 49.3c-8.5-4.2-10.6-14.5-15.9-22.4c-5.6-8.3-12.4-15.8-20.1-22.2c-15.1-12.3-34-17.8-51.3-26 C803.5 581.2 817.5 588.7 835.1 605.7z M869 626.1c16.7 15.9 43 40.3 45.9 63.9c-7.6-8.1-18-12.9-25.7-20.9 C878.7 658.2 876.6 639.1 869 626.1z M751.2 576.3c-3.7-0.4-7.4-0.6-11-0.6c7.6-3.8 15.1-4.1 23.5-3.1 C759.5 573.7 755.3 574.9 751.2 576.3z M822.3 621.7c7.5 6.2 13.9 13.8 19 22.1C830.6 639.8 828.7 630.8 822.3 621.7z M931.6 683.3 c-2.5-15.8-6.1-31.3-10.8-46.6c20.4 22.9 31.3 53 30.2 83.5C945.2 707.6 938.7 695.3 931.6 683.3z M904.5 644.1 c-16.3-20.3-35.2-38.6-56.7-53.2c13.3 4.2 32.4 10 42.2 20.5C898.1 620.1 900.8 633.1 904.5 644.1z M834 572.8 c-16.1-3.4-30.3-6.2-45.9-11.3c14.3-1.9 28.8-1.9 43.1-0.2c21.9 2.6 31.7 7.2 44.5 25.4C862.3 580.4 848.4 575.7 834 572.8z M752.3 555.3c-30.4-0.4-61 8.9-88.3 21.6c39.3-55.7 119.3-70.6 174.8-28.8C810 543.7 779.9 545.8 752.3 555.3z M705.4 581.9 c-11.6 10-21.2 22.1-28.7 35.5c-7.5 13.5-9 25.1-21.1 34.6C663.6 624.2 680.3 597.3 705.4 581.9z M648.4 630.2 c-5.8 13.3-5.4 31.9-13 43.8c-0.1-18.3 2.7-36.3 7.1-54c5-20.2 16.4-25.8 34.8-33.7C664.9 598.9 655.5 614.1 648.4 630.2z M826.1 816.1c-7.2-2.6-11.7-6.7-16.7-12.4c8.1-3 15.7-7.2 22.6-12.4c7-5.3 15.9 3 22.9 4.4c-6.4 10.4-14.1 20-24.2 27 C830.5 819.5 829 817.3 826.1 816.1z M861.7 811.5c11-16.4 20.3-33.7 26.3-52.6c8.7 29.9-3.9 69.8-40.6 68.6 C852.9 822.9 857.7 817.5 861.7 811.5z M929.1 778.8c-0.9 5.2-2.3 10.2-4.2 15.1C926.6 789 927.9 783.9 929.1 778.8z M905.2 772.9 c-1.3-13.7-5.8-26.8-11.6-39.2c1.9-15.3 0.9-31-2.3-46.1c10.1 8.1 22.1 17.6 24.2 31.2C918.3 735.9 911.1 757.1 905.2 772.9z M936.9 724.6c-0.7-2-1.4-4-2-6c7.5 15.3 14.2 27.9 9.5 44.9C944.2 750.3 941.4 737.1 936.9 724.6z M965.9 757.2 c-4.7-13.5-0.6-28.3-0.7-42.1c-0.1-16.1-2.8-32.1-8.7-47.2c-12.8-32.5-41.2-52.2-55.9-83.2c67.8 39.9 95.6 128.1 74.4 201.7 C972.3 776.5 969.3 766.8 965.9 757.2z M633 594.4c-2.2 1.6-4.4 3.2-6.7 4.8c0.7-14-0.2-35.3 6.6-47.8c6.5-12 23-17.4 34.7-22.8 C653.2 548.9 641.6 571.1 633 594.4z M611.5 549.6c-18.7 18.2-32.5 40.9-39.7 66c-4.9-10.8-11.8-21.7-12.9-33.7 c-1.3-14 12-31.4 18.9-42.9c20.8-34.6 47.7-66 79.6-90.8c-10.7 17.1-19.6 35.4-26.5 54.4C625.2 518.5 624 537.5 611.5 549.6z M590.1 605.3c6-14.4 14.6-27.7 25.1-39.2c-1.8 12.6-3 25.4-3.4 38.2c-0.5 14.2-17.8 27.2-25 40 C579.2 631.5 584.7 618.2 590.1 605.3z M611.8 632.9c0.8 17.9 3.7 35.2 3.2 53.1c-6.9-8.8-13.4-18-19.5-27.4 C599.9 649.4 605.4 640.7 611.8 632.9z M652.8 702.6c-2.8-15.4-2.8-26.9 9.6-37.8c0.7 42.8 31.2 80.3 60.2 109.1 C687.6 760 659.8 741.9 652.8 702.6z M608.3 700.7c9.8 12 8 26.9 10.7 41.6c2.9 16.2 7.4 32 13.5 47.3 c-25.5-30.3-56.1-73.6-43.4-114.7C595.2 683.8 601.6 692.4 608.3 700.7z M628 806.2c16.1 18.2 33.4 37.1 50.8 53.9 C634.6 838.2 600 796.9 588 749C598.8 769.7 612.6 788.7 628 806.2z M675.8 832.6c-25.3-21.2-35.8-56.8-42-87.9 c38.8 106.2 203.6 177.8 272.1 59.7c-9.4 21.7-20.5 38.3-41.9 48.8c-21.8 10.8-45.7 17.6-69.8 21.2c-22.4 3.3-45.1 5.3-66.2-4.7 C708.6 860.5 692.1 846.2 675.8 832.6z M850.3 874.7c-20 9.4-41.7 14.7-63.9 15.1C808.2 887.4 829.8 882.4 850.3 874.7z M843.2 915.1c53.8-2.4 101-38.3 127.4-83.4c1.7 10.2 4.1 16.3-2.1 25.1c-7.9 11.1-16.8 21.4-26.7 30.7 c-18.2 17.1-39.5 30.8-62.7 40.3c-37 15.2-97.1 27.3-135.2 9.1c16-1.5 31.9-5 47.1-10.3C810 920 823.1 916.1 843.2 915.1z M958.1 825.5c-24.3 41.1-67.8 74.1-117.1 75.6c50.2-34.6 96.6-67 115.5-128.4C962.6 791.8 968.8 807.3 958.1 825.5z M982.9 806.7 c19-47.9 17-106.1-3.8-153.4c-10.9-24.6-27.5-46.7-48.2-64c-10.8-9-22.5-16.4-34.9-22.8c-11.8-6-17.7-22.6-24.9-33.1 c108.9 52.9 170.4 185.6 113.4 297.2C983.3 822.7 979.9 814.4 982.9 806.7z M828.8 502.9c-38.5-10-79.2-11.2-118-3.2 c15.3-14.8 40-37.7 61.8-41.8C787.5 455 819.6 493 828.8 502.9z M759.3 448.2c-23 11.1-43.7 26.5-61.5 44.8 c-17 17.4-40.3 23-60.4 36c8.2-30.2 21.1-64.5 41.9-88.6c7-8.1 24.1-6 33.8-6.1C729.7 434.3 744.9 440.5 759.3 448.2z M711.2 415.6 c8.6-4 18 2.4 25.8 5.6C728 420.5 719.9 417.5 711.2 415.6z M575.4 462.8c21.1-22.4 52.9-33.3 83.1-36.3 C628.7 433.2 600.5 445.6 575.4 462.8z M635.7 447.7c-34.4 29.9-62.8 66.8-82.9 107.6c-3.2-19.7-6.9-50.5 9.9-65.1 C584.1 471.8 609 457.3 635.7 447.7z M511.8 710.7c2.2 10.3 4.8 20.6 7.7 30.7c-8.4-19.4-14.8-39.7-18.9-60.5 C504 691 507.6 700.9 511.8 710.7z M557.5 767.5c-29.7-46.8-23.8-118-7.6-167.9c5.2 14.3 17.7 31.3 16.5 46.1 c-1.6 20.2 1.8 40.1 2.7 60.2c1.6 35.4 8.1 67.4 27.3 98.1c43.5 69.2 122.7 89.4 197.6 106.3c-19.9 7.9-41.3 12.4-62.8 13.5 c-23 1.2-47.2-22.1-64.3-35.5C623.9 854.6 586.7 813.5 557.5 767.5z M579.6 835.6c-11.7-13.4-20.8-28.1-27.6-44.5 C559.8 806.8 569.1 821.6 579.6 835.6z M874.9 972.9c34.5-4.8 67.8-16.5 97.4-34.5c-3.5 23.3-18.5 28.4-40.4 31.8 C913 973.1 893.9 974 874.9 972.9z M943.7 938c-44.9 21.6-96.5 28.2-145.8 20.1c68.5-0.7 135.4-32 177.2-86.4 c0.7 12.6 4.7 35.7-1.4 47.2C968.3 929.3 953.5 933.3 943.7 938z M987.8 928.3c5.6-4 11.1-8.1 16.3-12.5 c-5.2 7.9-11.1 15.4-17.5 22.4C987 934.9 987.4 931.6 987.8 928.3z M1058.9 857.2c-8.9 25.8-27.3 78.1-54.5 90.9 C1028.1 921.6 1046.6 890.5 1058.9 857.2z M651.8 371.7c-14.4 4.4-28 11.8-43.3 12.9c9.1-8.2 18.1-17.9 30.5-21.2 c16.5-4.5 37.1-2.3 54-1.1C679 364.5 665.2 367.6 651.8 371.7z M546.7 435c1.8-2.3 3.7-4.7 5.6-6.9C551 430.8 549.1 433.1 546.7 435 z M498 494c-11.6 32.4-25 64.2-32.7 97.8c2.4-33.7 9-67.2 21.3-98.7c11.3-28.8 30.1-72.1 61.9-82.4C526.6 434.9 509 463.2 498 494z M483.4 578.1c-0.4 52.1-2.5 99.5 15.5 149.6c17.2 47.8 47.5 92.2 74.3 135.2c-38.7-33.1-68.3-76.1-86.6-123.4 c-8.8-22.6-19.1-50.3-17.6-74.7C470.9 635.5 475.6 606.3 483.4 578.1z M545.8 856.6c17.5 17.6 42.5 30.1 57.8 49 c16 19.8 34 38 53.7 54.1c-46.1-23-86.2-55.2-119.3-94.6c-15.9-19-30.4-39.2-43.3-60.3c-6.4-10.4-12.5-21.1-18.1-31.9 c-5.9-11.2-5.6-25.4-6.6-37.9C485.8 780.4 511.8 822.4 545.8 856.6z M816 1013.9c33.8 0.7 68-3.4 100-14.6 C885.5 1015.8 850 1017.4 816 1013.9z M909.3 1021c15.1-4.1 29.7-9.6 43.6-16.6c-8.6 18.2-15.5 20.7-34.8 24.9 c-17.3 3.8-34.9 6.1-52.5 7.1C880.3 1031.5 894.4 1025 909.3 1021z M972.7 994.1c2.8-7.4 16.7-12.6 22.6-17.5 c11.7-9.8 21.6-18.3 34.9-25.9c-16.7 21.7-40.7 54.2-67 64.8C966.8 1008.5 969.9 1001.4 972.7 994.1z M1041.3 959.5 c13.8-18 24.6-32 41.8-46.8c-15.5 26-35.6 49.2-59.4 67.9C1029.8 973.8 1035.7 966.8 1041.3 959.5z M1050.6 920.5 c-3.9 2.9-7.9 5.7-12 8.3c14.7-21.2 26.1-44.7 34.4-69.1c9.3-27.1 11.3-55.9 18.9-83.5C1090.6 827 1076.4 877 1050.6 920.5z M1104.6 745.4c-3.8-56.9-1.4-110.8-17.7-166.5c21.9 48 37.2 99.6 40.1 152.4c3.1 56.4-5 128-49 167 C1099.6 850.7 1108.1 797.6 1104.6 745.4z M1075.3 706.2c-9.6-71-42.9-142.2-94.9-203.3C1037.7 555 1067.8 630.9 1075.3 706.2z M809.8 432c-26.7 4.5-50.4-17.1-73.8-26.3c23.4-8 48-12.6 72.8-13.9c27 11.7 53.2 26.3 77 43.6C861 429.2 835 427.8 809.8 432z M590.3 355.9c-18.9 9.8-40.1 14-59.1 23.7c-19.9 10.2-38.4 23-54.6 38.4c13-17.8 27.7-34.2 45.5-47.4 C544.5 364.5 567.3 359.6 590.3 355.9z M505.4 429c-63.1 87.4-56.9 194.8-50.5 297.1c-19.7-49.5-32.2-103-29.3-156.4 c1.5-27 6.9-53.8 17.5-78.7C456.2 460.4 476.5 444.2 505.4 429z M418.5 520.8c-12.7 52.6-8.2 108.2 5.8 160.2 c8.1 29.9 20.7 57.3 32.3 85.9c10.6 26.3 12.4 55 20.6 81.9c-36.6-45.4-63.8-98.2-80-154.1c-7.5-26-16.8-54.2-10-81.4 C395.1 581.7 405.5 550.7 418.5 520.8z M379.9 587c-0.5-13.7-0.4-27.5 0.4-41.2c8.8-13.1 18.4-25.8 28.6-37.9 C397.4 533.6 387.7 560 379.9 587z M539.3 988.1c-50.2-30.8-90.1-75.5-119.9-125.9c-14.3-24.2-26.3-49.7-36-76 c-10.9-29.8-14.1-52.3-11.3-83.5C396.4 811.7 456.3 913 539.3 988.1z M661.2 1073.1c34.7 9.2 68.5 21.7 104 28.1 C732.6 1107.1 689.2 1088 661.2 1073.1z M942 1048.6c19.4-12.2 38-23.8 58-35.1c22.6-12.7 43.3-29 61.1-47.9 c16.3-17.5 30.1-37.2 41.3-58.4c12.2-23.1 28-41.6 42.6-63.1c-25.4 107.3-110.6 188.1-215.4 218.3 C934 1058.1 938.1 1053.4 942 1048.6z M1127.3 844.7c18.2-63.9 18.1-129.2 1.2-193.6c11.9 33 21.7 68.4 24.8 103.4 C1156.6 791.9 1148.9 815.2 1127.3 844.7z M1161.9 698.6c-12.2-69.1-42.4-134.7-84.8-190.7c24.9 23.5 47 46.9 58.1 79.8 C1147.4 623.8 1156.7 660.8 1161.9 698.6z M1157.7 610.5c13.8 31.6 21.8 65.2 20.2 99.8C1174.2 676.5 1167.3 643.1 1157.7 610.5z M1040 502.6c25.4 46.7 41.5 98.4 47.2 151.2c-30.7-99.8-93.1-187.4-176.6-250.3C963.7 418.1 1013.4 453.7 1040 502.6z M877.7 377.4 c-11.4-3.4-21.6-9.5-32-15c24.5 1.2 46.8 15.5 67.7 26.9C901.6 384.9 889.7 380.9 877.7 377.4z M742 306.9 c-40.1 4.2-80.5 2.9-120.9 7.2c36.6-15.2 75.2-25.4 114.5-30.2c23.2-2.8 40.2-0.8 62.6 5.9c21.7 6.5 43.1 14 64.2 22.4 C824.3 306.3 780.4 303 742 306.9z M1021.8 437.5c-23.1-14.5-41.3-34.7-62.1-52.1c50.9 24.7 102.8 58.8 132.8 107.9 C1071 472.3 1047.3 453.5 1021.8 437.5z M831.2 285.6c33.3 6.1 66.1 15.2 97.7 27.4c33.8 13 56.2 32.8 80.4 59.4 c-16.6-10.9-32.4-21.7-50.2-30.5C917.1 321.1 875.6 300.9 831.2 285.6z M1085.3 430.1c-27.6-24.2-49.5-51-74.9-77.4 c64.1 38.3 114.8 86 147.8 153.4C1136.3 478.7 1111.8 453.3 1085.3 430.1z M772.7 264.2c-42.4-3-83.7-14.2-126-18.3 c81.9-22.7 170.8-9.3 244.8 31.6C852.5 268.5 812.5 266.9 772.7 264.2z M700.5 221.4c-45.5 4.3-89.2 20.5-135.2 21 c82.5-40.6 179.9-40.6 267.3-15.3C789.2 221.1 744.3 217.2 700.5 221.4z M612.7 257.3c25.4 1.4 50.7 4 75.9 7.9 c-95.2 8.7-158.7 80.8-242.8 116.9C488.3 326.1 547.4 283 612.7 257.3z M471.5 387.2c4.5-1.7 9-3.4 13.5-4.9 c-35.4 30.6-66.5 66.1-93.1 104.7C404.8 445.4 436 411.1 471.5 387.2z M379.4 452.8c-17.4 21.4-32.6 44.6-45.5 69 c3.2-19.8 5.8-44.9 15.5-62.7c8.4-15.4 26.2-23.3 40.4-32.1C386.7 435.7 385.4 445.4 379.4 452.8z M320.3 518.2 c-2.4 15.3-0.1 31.8-6 46.4c0.5-24.6-2.8-74.5 15.7-92C326 487.5 322.7 502.8 320.3 518.2z M335.3 551.1 c10.4-22.9 22.8-44.8 37.1-65.5c-7.4 15.9-13.5 32.4-18.2 49.3c-5.4 19.4-18.9 35.2-26.4 53.7C328.2 575.6 329.9 563.1 335.3 551.1z M361.3 576.7c-1 17.7-0.9 35.4 0.2 53.1c1.4 21.1 0.1 39.1-2.2 60.2c-2.9-21.1-4.3-42.4-3.9-63.7 C355.7 610.8 353.4 590.7 361.3 576.7z M750.2 1152.3c58.2 5.4 117.1 5.3 175.1-1.8c-112.4 41.5-239.7 18.8-344.5-34.8 C637.6 1125.9 692.4 1146.9 750.2 1152.3z M694.7 1123.3c27.7-1.2 55.1-6.7 82.8-6.2c28.8 0.6 56.6-8.1 85.3-9.7 c55.1-3.1 109.3-18.2 157.6-44.5C927.1 1126 805 1150.1 694.7 1123.3z M1200.3 785.9c-7.2 38.7-19 77.2-38.6 111.4 c8.7-38.9 18.1-75.5 19.3-115.7c0.5-18.4 7.5-35.7 9.7-53.8c2.3-19.2 2.2-38.7-0.6-57.8c6.5 16.2 15 32.5 16.6 50.1 C1208.6 741.4 1204.1 765 1200.3 785.9z M1221.2 719.1c0.2-9.9 0.1-19.9-0.4-29.8c2.6 16.9 4.4 33.9 5.6 50.9 C1224.8 733.1 1223.1 726.1 1221.2 719.1z M1250 690.4c2.9 10.5 4.9 20.7 6.3 31.5C1254.6 711.4 1252.5 700.8 1250 690.4z M1205.2 669.8c-15.6-39.9-37.1-78.3-61-113.9c-23-34.2-37.6-72.7-59.5-107.6c33.7 30.7 66.8 65.8 90.3 105.1 C1195.9 588.2 1201.4 630.2 1205.2 669.8z M1030.9 338.5c-28-19.2-58.3-34.8-90.2-46.5c-26.5-19-55-35.2-85.3-47.4 C923.6 255.9 979.8 292.8 1030.9 338.5z M655.7 199.7c-23.8 3.6-47.1 9.7-69.6 18.2c-22 8.4-42.4 24.6-66.1 26.4 c85.8-50.3 194.7-63.7 290.9-37.3C760.1 195.3 707.2 191.8 655.7 199.7z M360.4 327.7c-19.8 20.7-38.2 42.6-55.1 65.6 c18.8-34.3 42.7-65.7 70.1-93.5C370.2 308.9 365.1 318.2 360.4 327.7z M345.6 397.8c10.3-17.6 22.8-34.7 39.6-46.6 c-11.5 16.9-21.5 34.7-30.2 53.2c-7.9 16.8-12.1 37.6-26.4 50.2C333.2 435.4 338.8 416.4 345.6 397.8z M263.9 500.5 c9-36.7 29.2-70.8 56.6-96.5C298.6 434.2 279.5 466.5 263.9 500.5z M298.3 464.9c-3.9 10.7-7.4 21.5-10.5 32.4 c-6 7.5-11.7 15.3-16.9 23.3C278.9 501.6 288.1 483 298.3 464.9z M305.2 498.5c-4.4 29.7-6.1 59.8-5.3 89.8 c0.8 31.3-11.1 60.9-14.7 91.7c-2.6-30.8-2.6-61.8 0.2-92.6C287.8 562.3 288 518.6 305.2 498.5z M269.7 661.2 c1.2 24.2 3.6 48.7 8.4 72.5c4.8 23.8 3.7 42.9 1.4 66.8c-13.6-42.8-22.9-87-27-131.7c-2-22.4-2.8-44.8-2.1-67.2 c0.7-22.8 16.6-48.1 28.4-67C270.5 576.1 267.6 618.8 269.7 661.2z M231.5 522.6c-31 73.3-47.7 152.7-48.1 232.5 c-9.4-20.4-17.4-41.5-24.1-62.9c-5.9-19 2.1-36.5 8.4-54.4c16.1-45.8 38-89.6 64.9-130.1C232.2 512.6 231.8 517.6 231.5 522.6z M131.4 640.1c-0.5 16.8 0.1 33.7 1.7 50.4c-1.9 19.5-4.6 39-7.4 58.4c-5-44.1-4.3-88.8 1.6-132.7 C128.5 624.2 129.8 632.1 131.4 640.1z M143.3 751.6c10.4 44.3 27 87.2 48.1 127.6c10.6 20.3 14.3 43.1 21.2 64.8 c7.4 23.5 16.2 46.6 26.4 69.1c-31.5-38.4-57.9-81-77.2-126.8C143.4 843.1 142.3 797.8 143.3 751.6z M259.4 1023.8 c-14-28.6-25.7-58.3-35.1-88.8c17.9 27 37.6 52.8 59.5 76.7c10.6 11.6 14.7 18.6 19.4 33.6c5.3 17 11.4 33.7 18.3 50.2 C295.9 1074.3 274.1 1053.9 259.4 1023.8z M372.4 1073.8c1.5 1.7 3.1 3.3 4.6 5C374.9 1077.6 373.3 1075.9 372.4 1073.8z M351.3 1076c17.5 14.5 27.9 34.7 41.8 52.7C378.4 1111.7 364.4 1094.2 351.3 1076z M452 1173.1c-20-19.1-38.3-40-54.7-62.2 c32.9 22.6 66.9 44 102.2 62.6c37.2 19.6 77.2 30.5 113.7 50.8C557.2 1221.3 494.5 1213.8 452 1173.1z M641.7 1239.5 c6.2 3.1 12.5 6.1 18.9 9.1c-16.4-2.9-32.7-6.2-48.9-10.1C621.7 1239 631.7 1239.3 641.7 1239.5z M515.1 1159.9 c-78.9-34.7-159.8-99.7-188.1-184.4c14.3 16.6 30 32.1 46.9 46.1c16.3 13.6 28.4 31.1 42.5 46.8 C446.4 1101.8 479.6 1132.4 515.1 1159.9z M434.2 1063.6c3.1 4 6.3 7.9 9.5 11.8c-5.4-5-10.6-10.2-15.7-15.5 C430 1061.2 432.1 1062.4 434.2 1063.6z M661 1186c-36.7-7.1-72.5-18.8-106.2-34.9c-36.5-17.4-61.2-40.3-87.7-70.6 c33.2 15.3 66.6 26.3 98.9 43.5c30.7 16.3 63 29.8 96.3 40c63 19.4 130.1 27.3 195.5 17.8C793.5 1196.9 726 1198.7 661 1186z M1122.8 1094.2c-35.3 38.3-78 74.8-127.7 92.5c-50.2 17.9-104.7 27.1-157.9 30.7C938.7 1193.3 1035.1 1150.1 1122.8 1094.2z M1234.5 987.8c-2.2 2.2-4.4 4.3-6.6 6.5C1227.7 994.4 1236.3 982.3 1234.5 987.8z M1245.9 998.2c5.7-6 11.5-12 16.9-18.3 c-3.1 15-14.5 26.2-23.7 38.2C1241.5 1011.5 1243.8 1004.9 1245.9 998.2z M1237.6 879.3c2.2-41.4 5.9-82.7 8.8-124.1 c1.8 20.7 2 41.4 0.9 62.1C1246.2 834.8 1247.9 864.2 1237.6 879.3z M1281.5 770.8c-6.6-45.7-2.2-91.8-9.1-137.8 c-7.4-49.1-21.2-97.2-40.5-143c55.4 87.2 82.1 195.2 51.4 295.6C1282.8 780.7 1282.2 775.7 1281.5 770.8z M1217.6 492.2 c24.4 56.9 42.9 120.4 45 182.5c-24.3-122.2-81.7-237.7-164.4-331.2c25.6 20.5 49.8 42.8 72.1 66.8 C1191.9 433.8 1205.1 463.3 1217.6 492.2z M802.4 190.1c-39.5-9.7-80.4-13.9-120.9-11.8c42.9-9.1 97.9-21.2 140.9-6.7 c50.3 17 97.8 41.7 141.6 71.6C912.6 218.9 858.3 200.4 802.4 190.1z M614.2 177.5c42.1-15.4 91.3-33.9 136.3-25 C704.2 155 658.4 164 614.2 177.5z M717.9 132.8c-68.1-9.2-137.6-6.5-204.7 7.4c13.2-14.1 38.3-15 56.2-18.1 c22.3-3.9 44.8-6.6 67.4-7.6c49-2.4 98.3 2.3 146.3 12.9C761.5 128.8 739.8 135.8 717.9 132.8z M561.5 183.9 c-24.4 11.2-48.1 24-70.9 38.1c-10.7 6.7-21.3 13.6-31.6 20.9c-13.7 9.6-22.7 13.7-39.1 17.5C462.5 227.4 510.8 202.2 561.5 183.9z M401.7 256.8c-8.8 7.2-17.7 13.5-28.6 17.3c15.4-17.5 32.1-33.8 50.2-48.5C415.8 235.8 408.7 246.2 401.7 256.8z M353.3 275.5 c-8.9 10.8-22.2 14.9-34.3 20.7c19.8-19.3 41.2-37.1 63.8-53.1C372.5 253.5 362.6 264.3 353.3 275.5z M362.5 292.7 c-9.3 9.6-18.2 19.6-26.6 30C343.1 311.8 350.1 297.4 362.5 292.7z M287.6 379.2c-11.3 23.6-17.1 55.3-33.6 75.7 c5.1-29.3 12.2-58.3 21.4-86.6c4.5-13.9 9.6-27.7 15.2-41.2c12.7-7.5 25.8-14.4 39.2-20.7C313.8 329.5 299.7 353.9 287.6 379.2z M245.5 424.3c-3.9 17.9-7.1 35.9-9.5 54c-10.9 14.9-21.1 30.3-30.5 46.1c-19.9 33.2-36.5 68.3-49.7 104.7 C173 532.8 202.5 434 264.3 356.5C256.8 378.7 250.5 401.4 245.5 424.3z M224.1 387.2c-40.4 58.7-73.8 124.1-86.6 194.8 c-3.3-38.7 13.6-76.6 27.5-111.6c8.2-20.5 16.8-40.6 26.4-60.4c9.4-19.2 29.1-31.9 45.2-45.1C232.3 372.2 228.1 379.7 224.1 387.2z M135.3 514.9c0.8-27.5 7.7-43.3 23.4-66.1C149.9 470.5 142 492.5 135.3 514.9z M123.3 479.6C114.3 496 106 513 99.3 530.5 c7.3-21.1 15.6-41.9 25.1-62.1C124 472.1 123.6 475.8 123.3 479.6z M121.2 515.9c-0.7 25.8 1.7 50.3-4 75.7 c-6.6 30-8.6 61.5-8.9 92.1c-0.4 31.1 1.9 62.2 7.1 92.9c4.9 29.2 4 57.5 5.4 86.9C77.8 752.6 71.5 625.3 121.2 515.9z M134.6 858 c2.5 20 6.2 39.8 10.5 59.4C135.6 898.7 135.5 878.9 134.6 858z M158.9 914.2c33.3 69 86.2 122.7 128.2 185.6 c-30.8-26.6-58.8-56.6-83.4-89c-10.7-14-22.5-28.7-30.5-44.4C165.1 950.1 162.8 931.7 158.9 914.2z M425.9 1200.6 c45.6 17.3 80.2 51.5 121.7 77.1c-65.5-10.9-122.5-39.4-161.5-94.5C399.1 1189.6 412.4 1195.5 425.9 1200.6z M329.6 1133.4 c-11.9-8.4-18.3-23.1-26.3-34.7c16.7 14.4 30.6 25.2 41.3 44.8C339.6 1140.1 334.5 1136.8 329.6 1133.4z M580 1296.4 c4.5 2.5 9.1 4.9 13.6 7.3c-12.4-2.9-24.8-6.3-37-10.2C564.4 1294.6 572.2 1295.5 580 1296.4z M421.2 1183.7 c-11.2-4.5-22.2-9.6-32.9-15c-14.3-7.2-20.2-12.3-28-26.1c21.9 15.1 50 26.2 69.3 44.4C426.8 1185.9 424 1184.8 421.2 1183.7z M318.5 1142.5c28 34.6 62.5 61.3 92.3 93.9c-94.4-43.2-171.7-118.5-215.3-212.8C230.5 1068.8 271.8 1109.3 318.5 1142.5z M473.6 1274.9c39.9 12 75.3 33 116.4 42.6c18.3 4.3 37.3 5 55.3 10.8c22.9 7.4 44.9 17.3 68.1 24.3 C627.8 1353.4 542.1 1327.1 473.6 1274.9z M644.6 1312.3c-9.7-4.2-19.3-8.5-28.7-13.1c36.3 1.9 71 11.4 107.1 14.7 C696.8 1315.8 670.6 1315.2 644.6 1312.3z M627.9 1279.6c-38.1-12.7-74.5-30.5-108.1-52.5c35.7 7 69.6 21.1 105.2 28.9 c38.6 8.5 76.9 11.5 114.4 23.9C702.9 1284.7 663.9 1291.6 627.9 1279.6z M770.7 1289.4c12.8 3.5 25.7 6.6 38.7 9.4 c-34.2 4.5-69.1 3.7-103.3-1C727.7 1296 749.3 1293.1 770.7 1289.4z M1028 1190.2c-18.4 15-37.7 28.9-57.8 41.5 c-17.4 10.9-37.6 13.8-57.6 17.4C952.8 1233.2 991.6 1213.6 1028 1190.2z M1075.1 1176.6c15.7-15 32.7-24.7 51-36.3 c-26.6 34.6-55.4 59.5-96.4 75.7C1045.5 1203.7 1060.7 1190.5 1075.1 1176.6z M1175.6 1117.6c-5.8 6.7-9.5 15.3-14.5 22.6 c-6.6 9.7-17.8 15.1-27.3 21.4C1148.5 1147.7 1162.4 1133 1175.6 1117.6z M1122.1 1126c18.8-22.7 31.4-51.6 56-69.1 C1163.6 1086.4 1149.9 1107.9 1122.1 1126z M1272.8 1001.2c20.2-28.5 38.1-58.5 56-88.4c-13.8 48.5-35.9 89.6-66.8 129.5 C1266.1 1028.7 1269.6 1015 1272.8 1001.2z M1273.9 854.5c0.3 22 3.6 48.9-8.6 67.6C1269.4 899.7 1272.2 877.1 1273.9 854.5z M1286.5 818.8c26.4-64.1 30.8-135.8 15-203.3c-8.5-35.9-22.4-70.4-39.9-102.9c-19.9-36.7-48.6-66.3-69.8-101.7 c29.5 28 61.1 60.5 80.9 96.3c21.5 39 33 87.6 40.8 131c14.8 81.6 10.8 168.9-25.7 244.2C1288.4 861.2 1287.9 840 1286.5 818.8z M1298.6 521.6c-33.5-55.9-57.6-115.1-96.5-168.3c60.3 61.9 98.9 137.3 123.5 219.5C1317.6 555.3 1308.5 538.2 1298.6 521.6z M1247.5 376.3c16.1 20 29.5 40.5 41.5 63.2C1275.3 418.4 1261.5 397.3 1247.5 376.3z M1153.4 314.9c33.8 39.2 63.4 82.1 88.3 127.4 c-16.6-19.2-34.5-37.3-53.4-54.2c-19.7-17.6-34.8-34.8-51.6-55.2c-33.7-41.1-72.4-78.1-114.9-110 C1069.9 246.2 1118.2 274.2 1153.4 314.9z M916.4 159.1c18.6 4.6 37 10.2 55.1 16.7C952.8 170.4 933.9 167.5 916.4 159.1z M703.2 92.3c58.1 4.8 115.6 17.1 170.8 35.9c-13.7-1-27.3-1.9-41-2.1c-15.4-4.8-30.9-9-46.6-12.5c-27.7-6.2-55.8-10.5-84.2-12.5 c-54.7-3.9-109.8 0.8-163.2 12.7c11.3-11.1 17.5-17.4 33.4-19.3c14.5-1.8 29-3 43.5-3.7C645 89.4 674.1 89.9 703.2 92.3z M507.7 121.8c-38.1 10.7-75.2 25.1-110.5 43c16.4-16.6 40.6-26.8 61.1-37.5c24.2-12.6 47-21.5 73.9-26.5 C524.7 108 518.3 118.8 507.7 121.8z M471.7 165c-12.5 14.4-21.6 21.4-38.4 30.3c-14.8 7.8-29.2 16.4-43.2 25.6 c-28.6 18.8-55.1 40.5-79.7 64.2c14.4-27.8 31.6-66.8 60.3-81C403.1 188.2 436.9 175 471.7 165z M284 305.9 c-11.3 25-48.3 40.9-69.2 59.4c27.7-47.7 63.7-108.1 112.2-137.3C310.5 252.8 296.2 278.9 284 305.9z M181.5 398.2 c-14.8 16.3-28.4 33.7-40.5 52.1c3.8-27.3 19.8-49.7 35.1-71.8c19.8-28.8 42.1-55.9 66.4-80.9C219.4 329.2 199.1 363 181.5 398.2z M130.7 424.6c-102.6 187.1-100.3 409.2-3.7 599.1C4.7 837.4 15.1 602 132.2 416.9C131.7 419.5 131.2 422 130.7 424.6z M69.6 784.7 c-5.7-55.3-3.4-111.3 6.5-165.8c-10.9 73.9-2.1 149.9 21.1 220.9c5.6 17 11.6 34.2 19.3 50.4c8.4 17.5 10 34.7 13.4 53.5 c7.3 40.1 18.7 79.5 33.9 117.4C113.4 976.9 79.7 882.2 69.6 784.7z M747.2 1347.2c-20.1-5-40-11.1-59.5-18 c36.2 0.4 72.3-3.6 107.7-11c17.6-3.7 37.3-12.1 55.3-12.1c17.6 0 35.7 4.2 53.4 5.2c-25.8 10.9-52.4 19.9-79.6 26.7 C800.7 1344 771.8 1353.4 747.2 1347.2z M888.9 1332.7c15.8-6 31.4-15.5 47.6-20.1c12.8-3.6 26.5-1.1 39.5-2.1 c-25.9 14.8-53 27.6-81 38.3c-15.1 5.7-30.3 10.9-45.8 15.4c-16.7-1.4-33.3-3.5-49.9-6.2C829.9 1352.2 859.8 1343.7 888.9 1332.7z M938 1295.6c-14.4 7.3-39 1.6-54.3 0.2c46.1-15.4 94.1-29.4 137.3-51.9C994.9 1263.5 967.1 1280.8 938 1295.6z M1048.1 1240.5 c13.9-11.4 26.2-24.8 40.4-35.8c12.8-9.9 28.3-15.4 42-24c-23.7 28.7-50.3 55-79.2 78.4c-13.3 10.8-27.6 23.6-43.1 31.1 c-13.3 6.4-28.7 6-43.1 6.9C994.3 1280.7 1022.1 1261.7 1048.1 1240.5z M1205.6 1172c41.6-49.2 76.4-104.1 102.9-162.8 c12.4-27.6 24.9-55.2 35.4-83.6c10.4-28.3 12.4-60.9 24.8-88.1c-16.6 153.2-89.7 299.7-207.7 399.6 C1177.3 1216.4 1192.3 1194.8 1205.6 1172z M1381.5 595.1c-2.8-46.8-12-93.3-28.1-137.4c30.1 62.6 47.7 131.7 45.5 201.2 C1394.1 637.4 1388.3 616.1 1381.5 595.1z M1360.7 539.5c-23.5-55.6-47.7-111.7-84.4-160.2c-38.5-50.9-78.2-101.9-123.6-147 C1261.5 302.2 1338.1 412.2 1360.7 539.5z M1178.8 280.4c-37.7-29.6-71.5-63.5-110-92.2c24 10.1 40.3 21.8 59.2 39.6 C1145.7 244.6 1162.6 262.2 1178.8 280.4z M720.1 40.4c125.1 5.9 237.5 53.3 337.3 127.9c-37-14.1-69.9-34.1-105.5-51.1 c-39-18.7-79.8-33.6-121.7-44.2c-73.1-18.3-149.8-22.9-224-10.4c16-9 32.9-16.4 50.4-22.1C677.7 39.5 698.9 39.4 720.1 40.4z M610.1 44.5c-19.3 9.8-36.6 24.3-57.7 30.3c-24 6.8-47.1 16.7-71.2 23.2C518.8 74.7 565.6 49.7 610.1 44.5z M385.7 112.8 c41.6-21.9 85.8-38.7 131.3-50.7c-20.2 9.7-39.8 20.8-58.4 33.2c-20.7 13.9-41.3 22.7-64.2 32.4c-46.3 19.6-90.9 43.8-131 74 C299.3 166.2 340.9 136.4 385.7 112.8z M218.5 259.8c52.2-52.2 115.3-91.1 183.3-119.8C326.3 209.7 235 265.2 168.3 344 C180.5 313.6 195.1 283.3 218.5 259.8z M34.3 864c-19-85.8-21.4-175.4-4.9-261.6C49.2 499.1 97.6 406.5 162 324.1 c-8.2 18.2-11.8 42.3-23.3 58.4c-13.9 19.4-26.7 39.7-38.1 60.6c-21.8 40-38.8 82.7-51.6 126.4C23.8 655 16.8 745.9 33.9 833.9 c16.8 86.8 55.8 171.1 112.1 239.7c29.3 35.8 56.8 70.8 83.6 108.5c28.2 39.8 61.4 76 98.3 107.8C177.3 1195.1 72.3 1036.4 34.3 864 z M304.7 1249.2c54.6 46.9 116.1 85.8 182.6 113.4C415.4 1341.1 357.6 1302.1 304.7 1249.2z M499.9 1380.6 c39.7 10.7 80.4 17.7 121.3 20.9c42.6 3.3 85.2 9.4 128 6.9c38.6-2.2 76.9-8.2 114.3-17.8c40.4-10.3 81.5-13.2 122-22.5 C836.6 1450 654.7 1447.7 499.9 1380.6z M890.1 1365.6c24.7-8.9 48.8-19.4 72.1-31.5c11.6-6 23.1-12.4 34.3-19.2 c12.9-7.8 23.2-9.6 38-12.6c-24.4 15.1-49.8 28.1-75.7 40.4C937.3 1352.8 914.5 1365.3 890.1 1365.6z M1045.8 1329.6 c-15.7 11.5-34 17.4-52.7 22.2c18.8-7 37.1-15.3 55.1-24.1C1047.4 1328.3 1046.6 1329 1045.8 1329.6z M1080.8 1319.8 c60.7-51.6 133.1-89.1 188.2-147C1217 1233.7 1153.3 1285.2 1080.8 1319.8z M1225.9 1194.5c55.7-61.2 97.9-134.2 124.9-212.5 c25.7-74.4 27.7-152 47.9-226.9C1409.6 917.6 1351.2 1087.5 1225.9 1194.5z M1381.9 462.6c72 168.8 68.1 364.8-3.1 532.3 c16.5-44.4 27.1-91 31.9-138.2c5.1-49.6-1.6-97.4-1.1-146.8c0.5-50.1 6-96.1-4.4-146.2c-9.5-45.9-26.4-90.2-48-131.8 c-43.5-83.8-106.1-157-176.3-219.8c-77.9-69.8-166.4-130.6-264.6-167.8C1126.1 101 1297.6 265 1381.9 462.6z"/></svg>