<svg xmlns="http://www.w3.org/2000/svg" xmlns:xlink="http://www.w3.org/1999/xlink" version="1.1" id="Layer_1" x="0px" y="0px" width="1452.5px" height="1455.1px" viewBox="0 0 1452.5 1455.1" style="enable-background:new 0 0 1452.5 1455.1;" xml:space="preserve"><style type="text/css">.st0{fill:#0091BE;}</style><path class="st0" d="M1279.2 284.3c-38.6-45.1-74.5-92.7-119.6-131.9c-90.8-78.9-205.2-127.2-324-143.8c-63-8.7-127-8.6-189.9 0.8 C581.5 19.2 514.7 35.2 453.5 57c-68.2 24.4-132.3 59.8-189 104.9C173.2 234.5 103.5 331.7 64 441.5C23 555.1-5.1 673.5 6.2 794.8 c11.3 121.4 54.6 246.4 123.5 347.3c30.6 44.7 68.3 84.4 112.3 116.1c21 15.1 42.8 27.3 62.4 44.2c22.3 19 45.8 36.4 70.7 51.9 c191.3 118.5 449.1 130.3 652 35c65.7-30.8 125.5-72.8 176.5-123.7c139.3-100 235.4-271.2 236.6-439.5c0.6-3 1.2-6 1.8-9 c21.4-125.3-9.8-241.1-55.6-357.1C1361 395.7 1323.9 336.7 1279.2 284.3z M1168.8 180.1c-62.6-47.8-132.4-86-206.2-113.3 c-78.6-29.2-161.9-46.4-245.8-49.4C881.3 10.7 1048.2 66.2 1168.8 180.1z M561.8 42.7c137.5-25.5 280.8-7.9 410.6 43.1 c66.7 26.2 130 61.5 187.1 105c27.3 20.8 53.2 43.6 77.3 68.2c23.9 24.4 39.7 60.5 53.7 91.3c-2.3-2.4-4.6-4.7-7-7 c-37.1-59.1-85.1-111.3-142.2-152.3c-46-33.1-97.2-58.6-150.8-76.3c-27.7-9.1-56.6-13.9-83.8-24.2C874.2 78 841 67.6 807.2 59.7 C700 34.6 588.5 37.8 484.3 74.1c-11.6 4.1-23 8.5-34.3 13.2C485.7 69 523.2 54.1 561.8 42.7z M1247 366 c-9.3-10.1-19.1-19.8-28.9-29.4c-10.9-14-22-27.7-33.6-41.1c-13.4-15.4-27.3-30.4-41.6-45.1c46.1 29.1 89.3 62.6 128 101 c27.4 43.2 48.7 90.6 63.2 140.8c1.1 6.5 2.1 13 3 19.6c-2.1-2.8-4.3-5.6-6.5-8.4C1309.7 453.7 1283.7 405.8 1247 366z M1354.4 851.3c-2.2 27.9-6.3 49-19.9 73.6c-12.8 23.2-27.1 45.7-42.4 67.5c3.2-18.2 5.7-36.5 7.2-54.9 c25.1-47.7 44.1-98.5 56.2-151.9C1356.3 807.4 1356.1 829.4 1354.4 851.3z M1370.5 884.5c-1 7.3-2.1 14.6-3.2 22 c-5 16.7-11 33.1-18.1 49.3C1355 931.3 1360.3 906.8 1370.5 884.5z M1155.6 1136.4c-13.8 23.9-39.6 40-61.6 56.3 c-22.5 16.7-45.8 32.4-69.6 47.1c-7.8 4.8-15.7 9.4-23.6 14c-43.6 14.7-88.5 25.1-133.4 31.6c-0.5 0-1.2 0-1.7 0 c42.2-12.6 83.2-28.8 122.6-48.5c67.8-33.9 129.7-77.7 183-129.4C1166.3 1117.3 1161 1126.9 1155.6 1136.4z M1205.1 1117.1 c-15.6 24.5-34.5 46.4-55.7 66.1c-3.2 2.1-6.5 4.1-9.7 6.1c9.4-14 17.8-28.1 30.6-39.6C1182.1 1139.2 1193.7 1128.3 1205.1 1117.1z M1120.5 1191.1c-3.6 5-7.2 10.3-11 15.6c-11.2 6.1-22.6 11.8-34.1 17.2C1090.7 1213.4 1105.7 1202.6 1120.5 1191.1z M909.5 1329.2 c-14.3 1.7-28.7 2.7-43.1 3.2c27.5-10.1 59.9-11.1 88.4-20.1c33.7-10.6 66.3-24.8 97.3-41.9c-19 18.2-36.7 32.9-61.6 41.8 C964.8 1321.5 936.6 1326 909.5 1329.2z M953.8 1340c-0.9 0.4-1.8 0.8-2.6 1.3c-0.8 0.1-1.4 0-2.1 0.1 C950.7 1340.8 952.2 1340.4 953.8 1340z M142 827.1c3.9 7.9 8 15.7 12.3 23.4c3.2 31 9.3 61.6 17.9 91.4 C153.5 908 145.3 867.9 142 827.1z M132.2 852.7c-9-25.5-16.3-51.6-21.8-78.1c-0.2-7.5-0.3-15-0.3-22.6 c5.4 15.6 11.4 30.8 18.2 45.9C128.7 816.1 129.8 834.4 132.2 852.7z M183 927.5c-3.8-14.7-7.1-29.5-9.6-44.4 c8.2 13.3 16.8 26.3 25.8 39.2c10.7 23.4 22.7 46.4 36.2 68.5c25.8 42.4 51 91.3 85.2 127.3c-41.8-33.1-78.7-72.3-109.8-115.7 C196 981.9 189.5 951.9 183 927.5z M185.6 491.7c6-17.4 12.6-34.5 19.8-51.5c120.2-183.3 343-300.7 562.5-284.6 c82 6 163.2 30.9 232.7 74.7c-39.5-18.6-81.1-32.4-123.5-42.1C758.6 161.1 634 163 518.2 201.6c-107.7 35.8-207.4 102.7-270.3 198.5 c-29.9 45.7-50.7 97-60.9 150.7c-5 26.1-2.3 56.1-10.1 81c-10.2 32.4-17.3 65.7-21.3 99.2c-3.4-21.2-6.4-42.5-8.1-64 c-1.6-19.7 3.9-40.8 7.6-60.1C162.5 567.9 172.7 529.4 185.6 491.7z M147.5 573.3c0.5-8 1.2-16 1.9-24.1c3.8-9.5 7.7-18.9 11.9-28.3 C156.2 538.2 151.5 555.7 147.5 573.3z M1160.9 377.5c6.5 8.7 12.6 17.9 18.5 27.6c60.6 100.4 92.8 218 103.8 334.2 c-10.6-43.7-25.2-86.4-43.5-127.5c-1.2-2.6-2.4-5.3-3.4-8.1C1226.3 524 1201.6 446.5 1160.9 377.5z M1189 393.7 c2.1 1.5 4.1 3 6.2 4.5c21.8 23.8 41.6 49.4 59.3 76.3c19.9 30.4 27.3 71.2 35 106.4c7.9 36.6 13.1 73.7 15.6 111 c2.3 34.9 6.9 76.2-4.1 109.6c-2.7-120-28.5-241.8-80.5-350.3C1211 431.5 1200.5 412.4 1189 393.7z M768 1321 c-2.1-0.6-4.2-1-6.3-1.6c12.5-4 24.9-8.5 37.2-13.3c13.4-0.7 26.8-1.6 40.2-3c9-0.9 17.9-2.1 26.9-3.3c16.7-0.1 33.4-1 50.1-2.7 c-26.4 11.7-50.4 21.2-79.3 23.4C813.9 1322.3 790.9 1322.4 768 1321z M838.4 1350.3c-15 2.1-30 3.8-45.1 4.9 c9.3-2.4 18.5-5 27.7-7.7C826.8 1348.5 832.6 1349.4 838.4 1350.3z M586.2 1247.6c0.2-0.1 0.3 0 0.5 0 c38.1 5.6 72.8 15.4 109.6 26.8c25.1 7.7 50.7 13.8 76.6 18c-3.5 0.2-6.9 0.4-10.3 0.4c-31.4 0.1-62.9-2-94.1-5.8 C640.4 1275.3 613 1262 586.2 1247.6z M667.5 1302.1c-4.5 0.1-9-0.1-13.5-0.1c-8.1-2.2-16.2-4.8-24.2-7.4 C643 1296 656.6 1297.5 667.5 1302.1z M210.1 640.3c2.1-30 4.3-68.3 18.3-95.4c29-55.9 66.7-107 109.8-152.8 c25.6-27.2 54.4-51.5 85-72.8c-65.7 48.8-117 122.1-153.1 195c-34.3 69.1-54.2 145.3-57.5 222.4 C208.8 704.7 207.8 672.4 210.1 640.3z M194.8 671.3c-1.4-19.9-3.3-39.5 3.6-58.5C195.9 632.2 194.9 651.8 194.8 671.3z M463.8 1152 c31.9 18.7 61.3 40.6 93.1 59.6C523.7 1195.3 492.7 1175 463.8 1152z M557.5 1227.7c-3.4-0.7-6.8-1.5-10.2-2.3 c-11.9-7.2-23.7-14.4-35.3-22.1C526.8 1212.2 542 1220.3 557.5 1227.7z M486.2 1144.6c-28.6-23.7-55.1-50-79-78.3 c104.1 78.3 231.4 125.9 362.3 128c-64.2 10.6-130.4 7.8-193.3-9.8C545.2 1175.9 511.2 1165.2 486.2 1144.6z M388.3 1101.8 c16.5 18.3 34.4 35.4 53.4 51.4c-54.2-41.8-104.5-88.8-150.2-139.5c-4.3-8-8.4-15.9-12.4-24.1c-11.2-23.3-20.4-47.6-28.2-72.3 C285.5 988.9 335.8 1043.5 388.3 1101.8z M269.8 922.7c15.1 22.4 27.9 43.5 40.5 67.3C295.2 968.6 281.8 946 269.8 922.7z M331 998.5c17 17.9 32.4 34.6 47.3 54.4c16.5 21.5 34.4 42.1 53.5 61.3C388.5 1082.8 357.4 1044.9 331 998.5z M594.6 264.4 c-154.5 58-270 195.2-303.4 356.4c-35.4 170.9 26.6 343.8 157.9 457.5c-25.6-16.7-49.8-35.3-72.6-55.7c-20.7-18.4-35-50.5-46.9-75.3 c-59.2-123.6-67.7-273.2-22.5-402.8C350.5 420 457.7 284.6 594.6 264.4z M254.3 473.4c18.5-37.7 42.5-72.5 71.4-103.1 c83.5-88.7 202.4-151.6 324.7-161.1C486 240.2 347.9 335.8 254.3 473.4z M328.2 974.8c-38.7-43.4-53.3-105.1-62.6-161.6 c-9.3-56.6-9.6-115-1.8-171.9c7-52.1 21.1-103.5 43-151.5c23.5-51.3 56.5-92.9 98.1-131C248.1 521.3 223.1 778.1 328.2 974.8z M709.4 1175.6c-55.5-7-120.2-19.9-168.5-48.6c-112.4-66.5-201.4-171.2-232.7-299.8c-28.9-118.4-8-246 54.1-350.4 c30.4-51 70.3-96.3 117.4-132.5c25.2-19.4 52.3-36.1 80.9-49.9c29.8-14.4 70.4-34.6 104-34.1c124.2 2.3 259 46.7 357.4 122 c87.7 67.1 146.2 162.3 166.4 271.3c20.1 108.6-0.7 226-63.4 318.2c-61.3 90-154.6 157.6-255.9 195.7 C820 1186.1 760.9 1182 709.4 1175.6z M597.1 249.7c75.2-28.2 157.8-42 235.1-15.3c-38-3.4-76.4-3.3-114.4 0.9 c-18.3 2-36.5 4.9-54.6 8.9C641.9 248.8 618.8 246.8 597.1 249.7z M804.4 199.1c-18.7-0.9-37.5-1.1-56.1-0.4 c-20.6-3.1-41.3-4.9-62.2-5.1c-73.5-0.9-146.1 18.6-211.9 50.7c-67.7 33-130 79.7-178 137.9c-48.5 58.6-69.2 125.9-98.7 194.3 c11.9-88.7 53-170.5 115.7-234.1C469.2 183.9 717.2 151 923.3 215.6C884.3 206.5 844.4 201 804.4 199.1z M227.2 730.1 c3.3-58.2 16.4-115.9 38.2-170c-31 111.2-28.4 231.6 7.4 341.3c-16.8-26.5-31.3-53.9-43.2-83C226.3 789.1 225.5 759.5 227.2 730.1z M205.5 795.3c13.9 40.8 18.1 83.5 30.9 124.7c5.5 17.7 12 35 19.2 52c-15.8-19.3-31-39.1-45.3-59.5c-15.3-34-27.9-69.1-37.8-105 c-11.9-43.3-2.3-91.5 8-134.8C183.6 714.5 191.9 755.6 205.5 795.3z M280.1 1022.7c23.5 43.1 52.4 83.1 85.7 119.2 c-31.8-28.8-56.3-58.9-78.3-95.6c-10.5-17.5-21.5-34.6-32.3-51.8C263.4 1004 271.7 1013.5 280.1 1022.7z M328.2 1072.8 c52.8 52 110.6 99.4 172.6 140.2c-9.4-2.9-18.8-6-28-9.4c-14.7-5.4-31.2-10.3-43.1-20.4c-12.7-10.8-24.9-22-36.7-33.7 C369.2 1125.8 347.6 1100.2 328.2 1072.8z M542.8 1239.3c23.7 14 47.8 27.1 72.4 39.3c-20.4-4-40.7-8.8-61-14.3 c-25.3-12.3-49.9-26.5-73.3-42.2C501.3 1229 521.9 1234.6 542.8 1239.3z M816.5 1283.3c-27.3-2.4-54.2-6.7-80.8-13.2 c53.4 1.3 106.6-7.4 157.3-23.7C868.8 1261 842.9 1274.7 816.5 1283.3z M705 1254c103.8-3.8 203.8-32.3 293.7-81.1 c-13.8 11.2-27.9 21.9-42.4 32.1C878.6 1242.9 792.8 1262.6 705 1254z M789.8 1231.2c-41.8 6.8-84.2 9.6-126.4 8.5 c-40.2-1.2-76.2-25.8-109.8-46.8c79.3 26 164.4 28.5 245.6 10.5c93.8-20.8 185.9-40 267.4-93.5c-3.4 3.7-6.8 7.2-10.3 10.7 c-16.5 11.6-33.6 22.6-51 32.7C938.8 1191.7 865.8 1218.9 789.8 1231.2z M1062.9 1133.3c20.4-14.2 40-29.5 59-45.8 c-25.2 24.5-52.4 47.2-81.4 67.6C1048.1 1148 1055.6 1140.8 1062.9 1133.3z M1113 1076.1c3.2-4.1 6.3-8.1 9.4-12.3 c71.3-73.5 107.8-177.8 118.4-278.7c2.2 40.7 1.5 82-3.9 122.5c-2.9 21.5-6.1 36.6-18.8 54.2c-11.4 15.8-23.6 31-36.4 45.8 C1160.4 1032 1137.5 1054.8 1113 1076.1z M1169.5 960.3c-12.7 27.2-27.7 53.2-44.6 77.8c-52.5 59.6-123.3 99.5-202.2 122 c121.5-58.7 235.4-164.9 269.5-299.4c35.9-142 11-303.4-84-416.4C988.5 301.9 873.1 269.2 717.9 249.8c56-6.4 115-5.7 170 7.5 c49.5 23.6 95.6 54.2 137.4 89.7c45.6 38.8 86.2 83.5 121.1 132.2c36.3 50.7 57.9 105.4 73.2 165.8c3.2 12.6 5.6 25.5 7.4 38.7 C1227.9 778.6 1209.3 874.7 1169.5 960.3z M978 293c51.4 29.1 95.1 70.1 130.9 116.8c-5.3-6-10.3-12.3-15.7-18.1 C1058.4 355 1019.8 321.7 978 293z M1065.6 340.3c-26.4-24.8-55.7-46.5-87.6-63.7c-34.5-18.6-72-27.8-107.7-42.9 c153.2 37 287.8 156.2 333.8 307.8C1162.7 469.4 1127.2 398.2 1065.6 340.3z M1178 442.9c-57.5-98.7-161.1-178.8-267.8-212.7 c50.8 11.3 99.4 30 144.7 55.6c15.5 8.8 29.9 18.3 43.4 28.5C1131.5 352.8 1158 396.4 1178 442.9z M131.4 626.6 c0.7 44.8-2.5 89-3.2 133.3c-1.4-3.5-2.7-7-3.9-10.5c-7.5-21.6-12.9-38.7-10-61.4c2.7-21.7 6.7-43.4 11.9-64.7 c1.6-6.8 3.4-13.4 5.3-20C131.2 611.1 131.2 618.8 131.4 626.6z M141.1 730.7c2.5 15.5 5.4 31 9 46.3c2.9 12.4 2.4 25.8 2.3 39 c-4.2-8.5-8.3-17.2-12-26C140 769.8 140.5 749.7 141.1 730.7z M168.5 846.4c-0.2-1.6-0.4-3.1-0.6-4.7c1 3.2 13.9 26.7 15 29.7 c-0.5-0.7-4.5-6.1-7.7-11.8C171.7 853.7 168.9 847.2 168.5 846.4z M359.3 1163.4c36.4 23.1 71 48.8 107.6 71.7 c-40.9-16.4-80.2-36.2-117-59.5c-25.6-16.2-49.9-34.5-72.8-54.4c-14.4-19.9-27.8-40.4-39.7-61.8 C272.8 1099.5 313.9 1134.6 359.3 1163.4z M422.6 1231c37.9 17.6 77.1 32.3 117.3 44.1c17.9 8.6 36.1 16.4 54.6 23.7 c-34.9-3.7-69.6-10.3-103.3-20.3c-40.2-11.7-78.6-28.3-114.5-49c-21.6-18.7-42-38.9-61-60.4C349.2 1192.8 384.8 1213.4 422.6 1231z M599.2 1313.5c15.2 1.5 30.4 2.2 45.6 2.6c10.2 3.2 20.6 6 30.9 8.7c-19.3 3.4-38.8 5.9-58.4 7c-15 1-30 1.2-45.1 0.6 c-8.7-0.3-32.4-6.3-44.2-4.3c-24.4-11.6-48.2-24.5-71-38.9c-8.4-5.3-16.8-10.9-25-16.7C485.2 1294.4 541.7 1308.2 599.2 1313.5z M611.1 1347c-0.2 0-0.4-0.1-0.6-0.2c24.1-1 48.2-3.7 72-7.9c9.6-1.8 19.1-3.7 28.6-5.9c22.7 4.7 45.7 8.3 68.7 10.7 c-26.3 6.4-53.5 13.4-80.6 12.2C669.7 1354.6 640.3 1351.8 611.1 1347z M628 1364c-3.8 0.4-7.5-0.2-11-1.7 C620.7 1362.8 624.3 1363.4 628 1364z M887.7 1355.6c9.3 0.6 18.7 0.9 28 0.9c-76.7 28.8-161 33.8-241.7 19.2 C746.4 1369.4 817.2 1368.1 887.7 1355.6z M941.2 1301.5c7.8-3.7 15.4-7.7 23.1-11.6c9.5-1.9 19-4.1 28.4-6.5 C975.9 1290.2 958.6 1296.4 941.2 1301.5z M894.7 1260.9c8.3-4.7 16.6-9.3 24.8-14.4c14.5-8.8 28.7-18.2 42.5-27.9 c3.1-1.5 6.2-3 9.2-4.5c97.6-49.5 180.6-125.6 244.6-213.8c-7.4 23.8-16.4 47.3-26.6 70.1C1108.8 1156.5 1005.3 1222 894.7 1260.9z M1223.6 1023.8c5.9-17.2 11.2-34.7 15.5-52.4c4.3-17.3 18.1-33.2 26.9-48.8c6.5-11.7 12.4-23.9 18.3-35.9c-2.3 27-7 51.9-14.1 76.8 c-15.4 25.5-32.5 49.8-51.2 72.8C1220.6 1032.1 1222.1 1028 1223.6 1023.8z M1250.5 912.3c12-88-0.7-172.7-9.7-260.2 c17 43.9 29.9 89.2 37.7 135.6c3 18.1 11.4 45.8 3.8 62.9C1273 871.7 1262.3 892.3 1250.5 912.3z M1313.7 851.1 c3.9-24.7 6-47.9 13.4-71.8c7.8-25.4 14.2-51 19-77.1c1.8 9.9 3.3 19.8 4.7 29.6c-0.7 5.5-1.5 10.8-2.3 16.2 c-7.9 49-21.5 97.3-40.9 142.9c-1.5 3.5-3.1 6.9-4.6 10.3C1306 884.5 1311.1 867.6 1313.7 851.1z M1321.5 713.1 c-2-53.4-9.5-106.5-22.6-158.3c9.7 21.2 23.3 45.7 25.2 69.1C1326.4 653.7 1325.4 683.6 1321.5 713.1z M1204.7 387.3 c-21.3-23-44.2-44.4-68.7-63.9c32.1 21.9 64.7 46.2 87.2 77.8C1217.1 396.5 1210.9 391.9 1204.7 387.3z M1079.1 273.3 c-28.2-27-59.8-50.4-94-69.3c-99.2-54.8-216.2-73.7-328.2-59.9c-163 20.1-315.4 105.7-420 230.9c16.8-31.1 35.9-61.1 57.4-89.1 c13.2-17.4 27.4-34 42.4-49.9c14.1-15 31.5-24.3 49.6-34c35.5-18.9 73-33.9 111.6-45.1c83.3-24.2 171-30.6 257.2-24.1 c163.7 12.5 355.4 74.8 445.1 222.5C1163.1 322.1 1121.5 297.6 1079.1 273.3z M265.4 268.7c21-23.1 44.5-43.9 70.5-61.3 c8.3-5.5 16.9-10.6 25.4-15.7C330.8 219.2 295.9 240.8 265.4 268.7z M397.2 180.2c9-7.2 18.2-14 27.7-20.5 c33.1-14.3 67.4-25.5 102.6-33.6c33.5-7.7 67.1-15.5 101-7.1C548.5 125.4 469.4 144.9 397.2 180.2z M649.2 110.4 c78.6-2.8 157.3 7.6 233.3 27.5c-36.2-8.5-72.9-14.5-109.9-18c-19.2-1.8-38.5-3-57.7-3.5c-13.4-0.3-37.4 4.4-49.2-0.5 C660.3 113.7 654.7 112.2 649.2 110.4z M1018.7 185c33.2 14.5 66.1 27.9 91.6 54C1081.6 218.1 1050.8 200.2 1018.7 185z M1066.2 179.8c-22.7-18.1-46.8-34.4-71.9-48.7c93.8 32.6 174.8 90.1 236.2 164.4c-14.9-12.2-30.2-23.8-45.9-34.8 c-20.4-14.3-41.5-27.6-63-40.1C1100.9 208.8 1084.7 194.6 1066.2 179.8z M1011.9 158.7c9.8 6.6 19.5 13.5 28.9 20.6 c-74.3-34-153-58.8-233.6-72.4c-36.2-6.1-72.7-9.7-109.4-10.9c34.2-2 68.5-2.2 102.7-0.4c36 1.9 78.1 2.8 113.3 13.6 C948.1 122.5 981.1 139 1011.9 158.7z M575.2 98.1c-9.1-0.3-18.3-0.5-27.4 0c88.5-29.7 184.6-33.7 276.3-14.9 C741.7 76.4 657.1 81.3 575.2 98.1z M579.2 73.4c-20.9 5.3-41.5 12-61.6 20c-21.1 8.3-41.2 14.1-63 20.5 c-43.1 12.6-84.2 31.3-122.9 54c55-36.9 113.8-67.8 177.4-87.4C568 62.3 628.7 55.5 689.2 58C652.2 59.3 615.3 64.2 579.2 73.4z M435.5 135.3c-11.5 7.2-23.4 13.6-35.3 19.8c-56.8 26.3-109.9 59.6-157.3 100.2c2.1-2.5 4-5 6.1-7.6 C293.6 194.7 371 157.8 435.5 135.3z M275.6 278.8c5.6-5 11.6-9.7 17.3-14.4c-41.8 52.3-75.6 110.7-101.5 172.3 c-12.7 19.7-24.3 40-34.7 61.1c5.3-28.4 12.6-56.4 22.6-83.8c9.2-25.3 19.4-51.6 36.5-72.5C234.1 319 254.1 298.1 275.6 278.8z M201.5 332.2c-18.7 32.4-42.3 61.6-60.3 94.7c14.2-35.8 31.9-70.2 52.3-103c13.9-15.6 28.5-30.5 43.9-44.6 C224.2 296 212.2 313.7 201.5 332.2z M182.5 314.7c-24 27.1-45.8 56.6-64.8 88.7c3.5-9.5 7.4-19 11.7-28.1 c19.1-27 39.9-52.3 61.1-75.1c1.5-1.6 3-3.1 4.4-4.6C190.7 301.8 186.5 308.2 182.5 314.7z M141.3 391c-4.8 10.4-9.3 21-13.5 31.8 C112 462.9 102.7 504.5 91.8 546c0.5-18.1 1.8-36.1 4.3-54C100.9 456.8 119.8 422.2 141.3 391z M116.4 517.7 c12.5-34.6 28.1-68.3 46.7-100.1c-14.5 42.3-23.7 86-28.4 130.2c-5.3 13.8-10.1 27.9-14.3 42.1c-7.8 26.2-13.8 52.9-17.9 79.9 c-1.7-8.8-3.3-17.7-4.6-26.5c0.1-5.2 0.3-10.3 0.5-15.5C100 590.7 103.8 552.8 116.4 517.7z M78.6 598 c-10.5 48.7-15.5 98.7-14.9 148.6c-11.2-73.2-7.4-148.4 14.7-220.4C76.9 550.2 77 574.2 78.6 598z M83.5 655 c0.2 40.6 4.4 81.1 12.5 120.8c1.5 46.7 8.4 93.3 21.1 138.3c-1-1.9-2.1-3.9-3.1-5.9c-10.7-22.4-20.1-45.4-27.9-69 C76.6 778.6 75.7 716.4 83.5 655z M172.8 971.2c21.8 35.9 40.5 73 61.3 109c-11.1-11.5-21.8-23.5-32-35.8 C190.7 1020.8 181 996.3 172.8 971.2z M151.6 950.8c5.1 18.4 11.1 36.3 18 53.9c-5.3-7.3-10.1-14.8-13.3-22.3 c-17.8-40.9-30.4-83.9-38-127.7C129.7 886.7 142.5 918.1 151.6 950.8z M246.1 1145.4c16.2 23.2 33.5 45.8 51.7 67.4 c-39.3-31.7-74.4-68.4-104.1-109.3c-39.7-54.6-69.1-115.4-88.4-179.2c4.6 9.2 9.4 18.3 14.4 27.3c16.5 29.1 32.2 58.3 48.5 87.5 C189.9 1077.5 216 1113.3 246.1 1145.4z M257.2 1135.7c-7.9-11.4-15.4-22.9-22.9-34.6c10.1 10 20.5 19.6 31.2 28.8 c5.5 7.8 11.2 15.5 17.1 22.9c8.3 10.4 17.1 20.5 26 30.3C290.4 1168.5 273.3 1152.6 257.2 1135.7z M368.7 1241.8 c25.8 22.2 53.1 42.5 81.8 60.6c-25.5-10.4-50.2-22.3-74-35.8c-22.2-12.6-38-29.1-54.9-48.1c-5.5-6.2-11-12.5-16.3-19 C325.5 1215.1 346.7 1229.2 368.7 1241.8z M572.1 1362.3c-30.2-2.4-66-4.3-93.4-18.1c-25.3-12.9-49.3-28.4-71.9-45.6 C459.9 1324.4 517 1341.8 572.1 1362.3z M628.7 1380.3c27.5 7.2 55.5 12.5 83.8 15.3c53.4 5.5 107.8 2.5 159.9-10.4 c28.4-7 55.9-17 82.2-29.7c34.1-2.2 67.9-7.9 100.7-17.3c-148.5 91.3-343.3 97.6-508.2 36.1C573.5 1377.3 603.4 1373.6 628.7 1380.3 z M987.2 1337.9c9-5.4 17.8-11 26.4-17.1c58.8-19.1 113.9-49.1 161.4-88.7c-23.2 29.3-49.2 55-77.5 77 C1061.7 1323.7 1024.7 1333 987.2 1337.9z M1060.1 1282.8c19.7-18.5 34.7-37.4 58.2-50.9c22.1-12.6 42.6-27.5 60.8-45.4 c6.3-6.1 12.2-12.6 17.9-19.3c13.2-9.9 26.1-20.4 38.4-31.4c-9.3 20.4-20.8 39.3-35.4 54.1 C1161.1 1229.2 1109.3 1258.5 1060.1 1282.8z M1182.5 1118.6c7.7-14.8 15-29.8 21.6-45c17.9-20 34.6-40.8 50-62.6 c-6.3 17.1-12.8 34.2-20 50.9C1224.7 1083.5 1199.5 1102.4 1182.5 1118.6z M1246 1091.7c5.8-11.7 9.4-28.6 17.7-38.5 c-4.4 15.9-9.5 33.4-15.6 50.7c-6 6.2-12.2 12.1-18.6 18C1235.5 1112 1241 1102 1246 1091.7z M1258.4 1113.9 c3.8-3.8 7.5-7.7 11.2-11.7c-5.1 7.9-10.3 15.7-15.8 23.4C1255.3 1121.8 1256.8 1117.9 1258.4 1113.9z M1322.7 1034.8 c9.2-14.1 17.8-28.5 25.5-43.3c-1.7 6-3.5 12.1-5.5 18.1c-6.9 21.3-13.6 42.6-27 60.8c-12.7 17.2-26.2 33.7-40.5 49.6 C1293.5 1092.9 1309.4 1064.5 1322.7 1034.8z M1308.8 1029.9c-4.8 7.3-9.9 14.3-15.1 21.4c-7.3 9.6-14.9 18.9-22.8 28 c4.9-15 9.2-30.2 12.7-45.5c3.6-15.2 16.4-27.7 25.3-40.6c10.3-15 20.1-30.3 29.2-46C1330.7 975.6 1320.8 1003.2 1308.8 1029.9z M1366.6 743c-0.5-3.8-1-7.6-1.4-11.3c1.6-12.2 2.8-24.6 3.6-36.9c1.8 13 3.4 26.1 4.5 39.1c3.2 37.5 9.3 83.7-4.9 119 C1371.4 816.4 1370.7 779.5 1366.6 743z M1355.8 673c0 0.5-0.1 0.9-0.1 1.5c-1.9-16.7-1.1-31.7 0-49.8c0.2 1 0.5 2 0.7 3 c0.5 6.5 3.9 20 3.7 26.6C1359.9 663.1 1356.1 665 1355.8 673z M1268.7 457.6c15.5 24.8 27.9 50.8 37.2 78.6 c-13.2-27.3-27.5-52.8-39.4-80.6C1267.2 456.3 1268 456.9 1268.7 457.6z M1225.5 370.1c11.6 15.8 22.7 32 33.3 48.5 c-10.2-12.7-20.6-25.3-28.3-39.7C1228.8 375.9 1227.2 373 1225.5 370.1z M1329.4 564.9c-4-16.9-9.2-33.6-15.4-49.9 c9.5 17.1 17.4 35.3 24.5 53.6c3.8 18.2 4.1 35.7 2.8 56.4C1335.2 605.6 1334.1 584.9 1329.4 564.9z M1399.4 736.2 c-5.4-51.6-26.9-99.3-32.5-150.2c17.9 34.9 31.4 70.7 40.9 107.2c-1.5 17.9-4.1 35.5-7.4 53.1 C1400.1 742.9 1399.8 739.5 1399.4 736.2z M273.4 173.1c48.1-38.2 101.7-69.3 158.4-92.4c-33.9 18.3-66.3 39.4-96.6 63.3 c-7.7 6-14.9 12.4-22 19c-33.8 23.2-66.4 48.6-97.7 75C172.3 274.5 138 320.7 115 372.4c-7.3 10.8-14.4 21.7-21 32.9 C134 314.7 195.9 234.7 273.4 173.1z M103.8 1069.7C38.1 940 4.2 794.5 23.9 649.1c-8.9 214.2 70.2 431.5 215 589.6 C180.9 1194.1 136.7 1134.7 103.8 1069.7z M184.8 1148.6c-60.5-87.1-103.8-186.1-127.3-289.5c-22.9-101.2-27.1-207.2-8-309.4 C57.1 509 73.1 469 94.1 431c-1.8 6.7-3.6 13.5-5.1 20.3c-6.3 28.1-20.2 54.5-27.9 82.5C32.9 635.3 39 743.4 71.8 842.9 c1 6.1 2 12.2 3.2 18.3c18.8 100.5 61.9 196.2 126.3 275.7c31.2 38.3 67.1 72.8 106.8 102.2c21.3 15.8 41.9 30.2 61.8 47.7 c18.7 16.3 38.4 31.5 59.3 45c-23-7.6-45.8-15.6-68.2-24.8c-23-9.4-52.1-19.1-70.4-36.1C251 1234 215.7 1192.9 184.8 1148.6z M987.6 1390.7c-205.9 82.8-465 58.4-644.2-75.9c43.5 18.9 89.1 35.2 135.1 46.7c20.7 5.2 40.4 17.1 60.5 24.7 c22.4 8.5 45.4 15.8 68.6 21.9c83.1 21.8 170.7 27.7 255.7 14.8c81.1-12.3 159.5-42 226.3-89.7c6.1-4.3 12.1-8.9 18-13.6 c8.3-3.5 16.4-7.2 24.5-11.1C1088.1 1342 1039.5 1369.8 987.6 1390.7z M1194 1254.4c-15.1 11.1-30.7 21.3-47 30.5 c14.6-14.4 28.4-29.7 41.1-46c16.4-21 29-41.4 48.7-59.4c20.7-18.9 40.5-39 58.8-60.4C1268.2 1169.2 1233.8 1214.5 1194 1254.4z M1332.8 1108.1c-18.5 27-39 52.9-61.5 77c7-10 13.8-20.2 20.3-30.7c15.2-24.6 28.7-50.3 40.4-76.8c13.2-30 34.5-56.6 49.9-85.7 c11.7-22.3 22-45.4 30.9-69C1399 987.8 1372.3 1050.5 1332.8 1108.1z M1423.7 834.2c-12.4 58.2-34.2 114.6-63.4 167 c8.3-27.7 14.8-56 19.7-84.6c6.7-20.7 12-41.8 15.7-63.3c2.8-16.7 4.6-33.5 5.5-50.5l0.1 0c6.6-22.4 11.8-45.2 15.6-68.2 C1422.4 767.6 1424.7 801 1423.7 834.2z M1434.7 752.5c-3.1-20.6-7.3-41-12.7-61.2c2.2-26.8 2.4-53.6 0.3-80.5 C1433.5 657.7 1437.4 705.3 1434.7 752.5z M1407.2 600.3c1.8 16.7 2.5 33.5 2.5 50.1c-7.7-22.7-16.7-45-27.6-66.5 c-7.3-14.5-19.1-28.6-22.1-44.5c-3.1-16.1-6.8-32.1-11.2-48c-4.1-23.2-9.4-46.2-16-68.8c20.7 27.9 39.1 57.7 54.1 89.1 C1399.7 538.6 1404 570.8 1407.2 600.3z M1324.3 388c-11.9-14.3-16.7-35.3-24.8-52.1c-1.6-3.1-3.3-6.3-4.9-9.4 c25.5 34 47.4 70.2 65.3 108.7C1349 418.8 1337 403.2 1324.3 388z"/></svg>