<?xml version="1.0" encoding="utf-8"?>
<!-- Generator: Adobe Illustrator 19.0.0, SVG Export Plug-In . SVG Version: 6.00 Build 0)  -->
<svg version="1.1" id="Layer_1" xmlns="http://www.w3.org/2000/svg" xmlns:xlink="http://www.w3.org/1999/xlink" x="0px" y="0px"
	 width="1452.5px" height="1455.1px" viewBox="0 0 1452.5 1455.1" style="enable-background:new 0 0 1452.5 1455.1;"
	 xml:space="preserve">
<style type="text/css">
	.st0{opacity:0.2;}
	.st1{fill:#F89D43;}
</style>
<g class="st0">
	<g>
		<path class="st1" d="M550.1,204.5c6.4,15.3,12.2,28.4,18.7,43.4c0.6-4.1,0.8-6.9,1.1-12c-6.2-2.1-6.2-2.1-20.4-32.7
			C549.7,203.5,550,204.1,550.1,204.5L550.1,204.5z M895.1,230.1c-16.1,28.8-29,54.2-36,67.9c60.3-97.9,107.9-162,159.2-214.3
			c-4.4,0.3-5.5,0.1-9.1-1.4l0,0l0,0l0,0l0,0l0,0l0,0l0,0l0,0c-4.4-2.7-6.1-5.4-6-9.7C978.3,100.4,943.6,143.3,895.1,230.1
			L895.1,230.1z M1290.8,324.5c-0.8,0.2-1.5,0.5-2.3,0.7c5.6-1.4,10.1-2.4,11.6-2.7C1298,323,1291.7,324.3,1290.8,324.5
			L1290.8,324.5z M338.4,215.2c22.5,18.1,39.9,33,49.2,41c-44.5-56.7-80.1-98.7-119.6-133.4c-5.9,1.5-7.2,0.4-10.8-2.7
			C264.5,130.7,319.2,199.8,338.4,215.2L338.4,215.2z M16.5,351.4c10.4-5.2,21.5-7.8,25.1-8.7c-9.1,0.3-17.3,3.2-25.9,9.2
			C16,351.7,16.3,351.6,16.5,351.4L16.5,351.4z M278.1,301.3C278.1,301.3,278.1,301.3,278.1,301.3l0.7,0.5
			c-119.1-92.5-159.7-101.3-166.6-102.1C119.1,206,119.1,206,278.1,301.3C278,301.2,278,301.2,278.1,301.3L278.1,301.3z
			 M-45.6,474.9c0.9-1,122.4-92.9,479.1,8.4C150,370.1,23.4,399.9-32.9,444.8c-7,8.8-8.9,11.7-12.9,22.2l-5.5,16.9
			C-49.6,481.2-47.7,477.3-45.6,474.9L-45.6,474.9z M956.5,1443.4c0.2,24.6-1.8,56.6-12.8,69.3c15.3-10.7,18.6-24.1,19.3-28
			c0-0.1,0.3-11.6-6.5-44.8C956.5,1441,956.5,1442.4,956.5,1443.4L956.5,1443.4z M-76.5,587c3.5-16.6,19.3-28.2,25.2-32.6
			c-13.5,4.5-21.5,13.1-24,25.6l-1.4,7.8C-76.6,587.6-76.6,587.3-76.5,587L-76.5,587z M1532.4,852.7c1.1-10-5.2-18.1-11.5-24.6
			c5.3,7.5,12.2,18.6,10.9,28.7l0.6-3.6C1532.3,853,1532.3,852.8,1532.4,852.7L1532.4,852.7z M-32.2,430.2
			c41.7-81.1,249.6-38.6,312.3-23.6c-90.8-35.3-145.7-41-172.1-43.8c-5.4,7.3-5.4,7.3-31.3,10.1c-14.6,1.6-88.5,11.4-107.4,53.1
			l-2.9,7.2C-33.1,432.3-32.7,431.1-32.2,430.2L-32.2,430.2z M570.3,198.9C566.8-3.5,565.6-71.6,593.2-76l-43.8,8.5l-33.2,8.2
			c-29.7,8.9-29.7,8.9,54.3,265.2C570.4,203.8,570.4,201,570.3,198.9L570.3,198.9z M218.1,129c8.7,5.2,16.8,10.4,21.1,13.2
			c-21.6-26.8-28.6-38.3-27.7-45.5c-0.5,0.2-1.1,0.6-1.5,0.9l-7.7,6.3l-14.2,12.2C190.1,115.6,194,114.7,218.1,129L218.1,129z
			 M-8.5,375.3c5.5-10.3,10-13.8,16.9-19.1c-5.5,2.8-10,5.5-13.9,12.9l-3.4,7C-8.7,375.8-8.6,375.5-8.5,375.3L-8.5,375.3z
			 M129.1,274.7c37.3,10.9,75.5,26.7,91.8,33.4c-55.6-41.8-125.5-76.2-151.8-60.8c-0.1,0-0.1,0-0.1,0c-0.1,0-0.1,0-0.1,0.1
			c0,0-0.1,0-0.1,0.1c0,0,0,0-0.1,0c0,0,0,0-0.1,0.1c0,0,0,0-0.1,0l0,0h-0.1l0,0l-2.1,2L57,262.7c12.7-16.3,64,2.8,66.4,10.2
			C125.1,273.5,127.4,274.1,129.1,274.7L129.1,274.7z M1281.1,1211.1c-8.4-11.3-14.2-18.8-35.9-46.5c-0.1-0.1-0.2-0.2-0.2-0.3
			c-0.1-0.1-0.2-0.2-0.2-0.3c-0.1-0.1-0.2-0.2-0.2-0.3c-0.1-0.1-0.2-0.2-0.3-0.3c-0.1-0.1-0.1-0.3-0.2-0.4c-0.1-0.1-0.2-0.2-0.3-0.3
			c-0.1-0.1-0.2-0.2-0.3-0.3c-0.1-0.1-0.2-0.2-0.3-0.3c0,0,0,0,0-0.1c-4.7-4.3-10.5-7.9-35.4-22.7
			c-59.7-35.6-113.5-70.8-181.5-127.3c20.7,29.7,232.8,334.3,232.8,334.3l42.3-39.1C1321.3,1280.6,1285.7,1217.5,1281.1,1211.1
			L1281.1,1211.1z M87.3,223.3c1.8-1.1,3.3-1.5,4.4-1.9c-1.9-2-1.7-2.6-1.6-2.9l-5.6,7l1.9-1.7l0,0C86.8,223.6,87,223.5,87.3,223.3
			L87.3,223.3z M755,565.5c43.1-28.8,268.5-176.6,478.2-258.1c154-59.9,175.8-24.9,190.2-1.8c-28.7-47.3-264.3,40-566.3,206
			l-25.2,13.3c-30.6,16.9-59.4,37-91.5,51.1C744.4,572.7,745.8,571.6,755,565.5L755,565.5z M1064.4,172.9
			c120.8-122.9,170-82.3,188.5-67.1l9.1,7.8c-3.8-2.2-8.5-5.7-12.7-7.2c-67.7-20.8-170.4,81.4-190.3,102.1
			c179.6-119.7,216.7-83.2,252.5-48l-6.7-5.6c-35.2-15.9-94.8-13.5-359.5,219.6c189.6-139.8,293.1-172.7,294.2-173
			c88.2-27.2,100.3-11.8,140.3,39.1l-0.2-0.2c-88.9-85.1-315.6,81.2-390.1,135.8c343.6-204.8,391-135.3,419.3-93.8l-7.1-8.3
			c-80.3-54-333.9,59.4-531.7,193.4c-7,4.7-10.2,5.9-12.8,6.8c-0.4-0.8-0.9-1.8-1.3-2.6c8.8-12.6,94.8-82.2,121-103.3
			c-55.8,38-90.1,63.7-141.3,105.9c-6.4,5.2-9.2,6.7-11.5,7.9c-0.3-0.8-0.6-1.8-0.9-2.5c11.3-17,209.8-215.7,332.4-302.7
			c-50.1,24.5-83.8,45.3-139,85.9c-10.2,7.5-18.9,5.2-16.8-4.4C1002.1,248.4,1021.7,216.3,1064.4,172.9L1064.4,172.9z M965.1,223.9
			L965.1,223.9c38.3-46.8,96.2-117.5,162.2-152.9c47.1-25.3,60-15.7,98.4,12.8l-4-2.8c-52-23.1-122.3,21.5-242.8,153.7
			C965.4,249.5,952.7,239.5,965.1,223.9L965.1,223.9z M873.6,237.6c52.1-105.3,100.7-176.2,148.5-216.8
			c42.1-35.7,45.8-33.8,107.9-0.9c-3.6-1.1-8.4-3.3-12.2-3.6c-20.4,2.6-32.7,4.1-74.5,44.6c41.3-32.6,73.5-48.8,106.6-29.3
			l22.9,14.4l-0.8-0.6C1100.6,6.8,967.1,139,805.8,408.2c-5.5,9.1-7.9,11.1-10.3,13c-0.5-0.8-1.2-1.8-1.7-2.5
			C796.7,404,850.8,283.7,873.6,237.6L873.6,237.6z M988.3-30.2c9.4-10.2,9.4-10.2,43.8,2.9c-4,0.1-9.3,1.4-12.9,3.3
			c-4.2,3.3-7.1,6.4-11.9,12.5c30.7-13.8,30.7-13.8,73,5.5l-9.6-2.9c-13.9,0.3-42.8,0.8-93.4,51.1c-1.5,1.5-6.2,6.1-14.4,4
			c-4.7-1.2-11.3-5.6-9.1-12.4C954,33.4,972.4-12.8,988.3-30.2L988.3-30.2z M737.4,379.5c28.5-184.5,55.1-272.2,88.8-353.9
			c41.6-101.1,66.9-95.2,93.7-88.9l11.4,2.9l-0.6-0.1c-65.3,1.4-127.1,201-150.6,286.8c88.4-304.9,136.6-291.1,192.4-275
			c-2.8,0-6.6-0.7-9.2,0c-22.6,11.2-48.8,42.6-78,93.2c-4.6,8-9,15.6-20.7,10.6c-14.2,26.9-40.5,77-76.9,195.9
			c-29.7,96.8-47.2,196.6-73.3,294.2C713.8,533.4,733.5,405.1,737.4,379.5L737.4,379.5z M783.1-26.3c8.6-45.2,21-52.5,25.1-54.9
			c14.8-8.7,39.9,4,56.9,6.4l-2.9-0.2c-8,2.5-26.6,8.4-57.9,76.2c-8.4,18.2-22.5,7.1-24.3,4.9C778.7,4.3,777.6,2.8,783.1-26.3
			L783.1-26.3z M717.9-56.9c1.3-17.9,4.3-27.9,8.8-29.7c16.7-6.7,42,1.4,60,2.1c-4.9,1.3-11.1,4.8-14.9,8.1
			C763-62.6,753.9-48.3,742.4,3c-1.3,5.9-2.7,12-13.6,12.6l0,0C719.5,14.6,712.7,13.9,717.9-56.9L717.9-56.9z M619.9,228.2
			c-5.9-16.4-28.9-185.4-18-249.3c10-58.6,10-58.6,71.5-64.1l22.3-1.1c-2.4,0.9-5.9,1.4-8,2.9c-24.8,26.2-39.5,95.8-43.6,207
			c-0.2,4-2.5,14-11.5,11.3c-2.2,31.9,4.3,63.7,1.3,95.7c-0.8,8.4-5.8,10.6-10.5,4.5C622.3,233.6,620.7,230.6,619.9,228.2
			L619.9,228.2z M529.1,200.3c-68.7-146.7-66.7-173.4-61.8-238c0.6-7.6,0.8-10.8,82.1-29.8c22.1-4,51.5-9.8,73.7-12.9l-6.6,3.4
			c-13.5,17.4-28.8,37.1-27.6,258.4C589.5,329.2,585,319.5,529.1,200.3L529.1,200.3z M466.4,137.2C440.5,90.9,415,41.6,404.1-5
			c-3.3-14.1-3.3-14.1,23.3-25.1l16.4-6.3l-4.6,3c-12.1,26-0.6,62.8,55.7,179c0.9,1.8,4.8,10.8-3.3,15.9l0,0l0,0l0,0l0,0l0,0l0,0
			l0,0l0,0C481.7,164.7,479.4,160.5,466.4,137.2L466.4,137.2z M334.9,57.2c-22-23.5-26.8-27.2-29.8-26.5c1.4-0.8,3.2-1.9,4.7-2.8
			l22.9-13.1l0.2-0.1c3,0.6,5.7,2.8,26.1,27c-14.6-26.6-16.2-29.8-17-32c8.4-4.3,19.6-10,28-14.3c0.5,2.1,1.5,4.8,2.3,6.8
			c11,24.6,29.6,63,55.3,114.1c0.3,0.5,0.5,1.3,0.7,1.8c2.7,8.8-6.5,16.5-15.8,13.3C400.9,127.5,368.8,93.3,334.9,57.2L334.9,57.2z
			 M163.7,144.6c-2.6,0.3-6,1.7-8.5,2.5c14.1-12.9,32.5-30.8,47.2-43.1c17.5-13.5,40.4-31.9,58.4-44.6l1.5,0.5
			c0.9,1.2,2,2.7,2.9,3.9c7.4,9.8,6.7,23.1,14.1,32.9c4,5.3,11.4,10.7,16.4,15.3c40.6,38,107.3,132.5,132.4,168.1
			c36.4,51.6,36.4,51.6,25.9,51.5c-5.1-0.1-9.8-4.1-18.4-11.6c52.4,56,106.9,109.9,160.1,165c1.2,1.3,1.2,1.3,1.2,1.3l0,0
			c6,6.4,7.5,8.6,9.8,12.2c0.7,2.4,0.7,2.4,0.7,2.4l0,0l0,0l0,0l0,0l0,0l0,0l0,0l0,0l0,0l0,0l0,0c-4.1-1.5-4.1-1.5-10.6-6.8
			c-1.7-1.5-1.7-1.5-1.7-1.5l0,0c-1.5-1.3-3-2.7-4.4-4c0-0.1,0-0.1,0-0.1C480.4,383.6,222.6,137.9,163.7,144.6L163.7,144.6z
			 M64,287.8c-20.9-0.8-25.1,3.8-28.2,7.1c21.2-31.1,51.1-71.5,74.6-100.8l13.4-15l2.7-1.6c34.6-2.5,277.7,185.8,260,201.5
			c-3.4,3-3.4,3-120.9-61.6c-0.2-0.1-0.3-0.2-0.5-0.3c-0.1-0.1-0.3-0.2-0.5-0.3c-0.6-0.3-1.4-0.7-2-1.1c16,23.3,16,23.3,16.1,24.3
			c0.4,4.6-5,8.8-13.4,7.5c-2.4-0.4-2.4-0.4-21.1-7.6C212.1,327.4,113.9,289.6,64,287.8L64,287.8z M-40.2,492.4
			c-6.4,4.3-14.2,11.5-18.7,17.8c9.7-30.9,23.7-71.9,35.6-102.1c9.3-19.8,21.4-46.5,31.7-65.9l2.9-4.4c29-21.2,36.5-20.4,46.9-19.4
			c15.6,1.6,25,14.8,38.5,20.3c31.2,12.7,65.5,8.6,97.3,17.8c80.2,23.2,189.1,76.9,196.7,90.6c-0.1,2.2-0.1,2.2-0.1,2.2
			c-0.8,0.5-1.9,1.2-2.7,1.7c51.6,36.2,118.1,41,168.6,79.5c-4.2,2-4.2,2-11-0.4C140.9,390.3-38.6,491.3-40.2,492.4L-40.2,492.4z
			 M-81,615.9c-0.2,0.6-0.2,1.4-0.3,2c3.6-20.4,7.8-47.6,12.3-67.8v-0.2c5.2-11.7,9-20.1,24.9-23.7c22.1-4.9,43.8,4,45.7,7.9
			c3.1,6.4-1.1,19.2-9,22.7C-39.4,571.1-72.4,585.8-81,615.9L-81,615.9z M-87.5,779.4L-87.5,779.4l-1.3-30v-1.9
			c0.8-9.5,2.3-13.9,7.7-22.4c-2.2,0.1-5.2-0.3-7.2-0.9c-0.2,1.6-0.5,3.7-0.7,5.3c0.5-16.2,1.3-37.7,1.8-53.8l1.4-7.5
			c12.9-28.3,70-61.7,75.4-44.1c0.4,1.3,0.4,3.2,0.6,4.6c248.9-68.6,620.7-36.3,623.8-35.8c-3,2-3,2-11.6,2
			C317.3,593.6-7,641.3-78,694.9c115.4-16.6,226.2-55.1,341.9-70.3c161.8-21.2,360.7-24.6,370.7-22.9c-3.3,0.9-6.2,1.6-20.6,2.7
			C474.8,614.9,134.4,646.8-18,714c-0.5,0.3-0.6,0.3-0.6,0.3C-25.8,716.7-88.3,738.2-87.5,779.4L-87.5,779.4z M-66.4,914
			c0,3.2,0.8,7.5,1.1,10.6c-2.1-9.2-4.9-21.5-7-30.7c-0.1-6.6,0-15.4,1.6-21.8c8.5-17.3,28.5-57.9,141.6-113.4
			c-111.2,50.7-146.7,83.4-151,91.7c-1.2-9.1-2.8-21.4-4-30.5l0.5-1.3c61.3-70.7,439.5-191.4,459.7-163.8
			c-2.7,5.5-2.7,5.5-33.4,16.4C71.2,768.2-66.4,849.9-66.4,914L-66.4,914z M-9.8,1069.6c0,4.4,0.7,10.5,2.4,14.5
			c-7.8-17.7-18.1-41.2-25.8-58.9l-0.7-2.2c-2.2-40.7,98-126.9,192.5-194.1c-177.9,101-200.9,154.8-198.7,177.9
			c-1.7-4.8-3.9-11.1-5.6-15.8l-4.5-13.7l-0.3-1.1c-0.2-28.2,34-65.5,101.8-110.8c36.7-24.5,202.9-116,214.6-100.8
			c4.2,5.5,4.2,5.5-116.2,98.1c27.5-15.7,29.1-16.6,36-8.6c0.1,0.2,0.1,0.2,0.1,0.2c2.7,9.7,2.7,9.7-43.5,44
			C83.5,941.9-9.6,1026.8-9.8,1069.6L-9.8,1069.6z M19.1,1132.3c1,2.7,2.7,6.2,3.9,8.8c-9.1-17-21.2-39.6-30.3-56.6l-0.9-3.1
			C-7,1022.6,304.1,803.7,323.6,817c1.1,1.3,1.1,1.3,1.1,1.3l0,0l0,0l0,0l0,0l0,0l0,0l0,0c0.9,9.2,0.9,9.2-35.7,34.6
			C-7.3,1058.8,12.6,1114.1,19.1,1132.3L19.1,1132.3z M473.4,856.4c-192.3,227.6-344.3,407.3-303,469.1
			c-6.7-6.5-15.6-15.2-22.4-21.7l-3.2-4c-5.4-14.1-6-18.5-0.9-42.2c-13.9,14.2-15.6,15.2-21.3,18.3c-4.4-4.7-10.3-11-14.7-15.7
			l-10.1-12l-1.3-1.8c-9.1-21.2-6-57.7,147.6-224.6c-91.3,84.5-174.8,170.7-178.8,184.3c-5.4-7.9-12.7-18.4-18.2-26.3l-0.1-0.5
			c13.7-34,320.6-302.8,349.3-306c1,1,2.3,2.3,3.3,3.2c-0.9,8.4-0.9,8.4-27.4,36.8c-223.9,240-247.8,304.7-256.8,329.1
			c0.6-0.6,67.1-65.9,138.7-157.3c28.9-36.8,276.7-321.8,298.7-326.8C551.9,763.7,551.9,763.7,473.4,856.4L473.4,856.4z M300.6,1176
			c-96.2,172.2-88.4,181.8-79.4,193c-6.4-5.2-14.9-12.1-21.2-17.3l-10.6-9.1l-0.3-0.4c1.5-32.2,5.1-107.6,330.3-519.6
			c1.9-2.4,2.4-3,2.9-3.7c1-1.3,2.1-2.6,3.1-4c10.6-13.3,13.5-17,22.5-28.2l0,0c11-13,13.5-13,16.2-12.9c-0.6,4.2-1.1,7-9.3,18.6
			l0,0l0,0l0,0l0,0l0,0l0,0l0,0l0,0l0,0l0,0l0,0l0,0h-0.1l0,0l0,0l0,0c-0.2,0.4-0.5,0.7-0.7,1c-0.3,0.4-0.5,0.7-0.8,1
			c-0.2,0.3-0.5,0.7-0.7,1s-0.5,0.7-0.8,1c-0.2,0.3-0.5,0.6-0.8,1c-0.2,0.3-0.5,0.7-0.7,1s-0.5,0.6-0.7,1c-0.3,0.4-0.5,0.7-0.8,1
			C445.4,940,361.9,1066.2,300.6,1176L300.6,1176z M383.9,1203.6c-81.5,185.2-81.2,219.4-70.2,228.5c-3.1-1.9-7.4-4.4-10.5-6.3
			l-21.8-13.6l-0.3-0.3c-4.2-6.9,11.6-108.9,186.8-425.8l0,0l0,0l0,0c0-0.1,0-0.1,0-0.1l0.1-0.1l0.1-0.1v-0.1
			c6.6-10.7,10-11.8,14.3-13.1c1.6,0.4,1.6,0.4,1.6,0.4l0,0l0,0l0,0l0,0l0,0l0,0l0,0c1.2,1.8,4.3,6.4-0.1,16.4
			C452.6,1061.9,415.6,1131.5,383.9,1203.6L383.9,1203.6z M390.9,1390.6c-8.8,40.9-13.2,69.9-5.9,78.5c-8-3.8-18.5-8.8-26.5-12.5
			l-2.8-2.1c-7-10.1-25.8-36.7,105.4-344.1c2.5-5.2,7.8-13.5,15.4-11.3c0.5,0.3,1.1,0.8,1.5,1.1c0.4,0.4,0.4,0.4,0.4,0.4
			c2.2,4,4.3,7.7,0.7,18.5l0,0l0,0l0,0l0,0l0,0l0,0l0,0l0,0c-5.4,14.2-12.6,33.2-17.9,47.4C444.8,1211.6,406.8,1316.9,390.9,1390.6
			L390.9,1390.6z M507.4,1225.8c-67.3,259.7-59,266-50.3,272.6c-9.1-3.4-21.3-7.9-30.4-11.2h-0.1c-8.5-14.4-7.9-17.2,7.6-89.1
			c0-0.1,0-0.2,0-0.3s0-0.1,0-0.2c0-0.1,0.1-0.2,0.1-0.2c0-0.1,0-0.1,0-0.2c0,0,0.1-0.1,0-0.2c0-0.1,0-0.2,0-0.2c0-0.1,0-0.2,0-0.2
			c0-0.1,0-0.2,0-0.2c30.3-148.7,127.2-420.3,182.2-569c1-2.7,2-5.4,3-8.2c1-2.7,2-5.5,3.1-8.2c1-2.8,2-5.5,3.1-8.2
			c1-2.8,2-5.5,3.1-8.3c1-2.7,2.1-5.5,3.1-8.3c1-2.7,2.1-5.5,3.1-8.3c1-2.7,2.1-5.5,3.1-8.3c1-2.7,2.1-5.5,3.1-8.3l0,0l0,0l0,0l0,0
			l0,0l0,0l0,0l0,0l0,0l0,0l0,0l0,0l0,0l0,0l0,0l0,0v-0.1l0,0l0,0l0,0l0,0l0,0l0,0l0,0c4.3-10.9,5.9-13.4,8.9-18.1
			c1.7,4.5,2,5.3-4.5,24.5C589.4,935.2,542.8,1089.3,507.4,1225.8L507.4,1225.8z M643,1003.8c-67.5,508.5-67.5,508.5-77,522.7
			c-9.9-1.6-23.1-3.9-33-5.5l-26.4-6.9l0.4-0.2c12.5-23.6,12.5-23.6,46.9-227.9l0,0l0,0l0,0l0,0l0,0l0,0l0,0l0,0l0,0l0,0l0,0l0,0
			l0,0l0,0l0,0l0,0l0,0l0,0l0,0l0,0l0,0l0,0l0,0l0,0c1.5-4.2,5-14.2,14.9-11.5c1.8,1,4.1,2.6,5.6,4.1c1.5-2.6,9.7-20.6,24.7-119.7
			c18.2-120.1,63-371.5,72.5-394.5C674.3,768.3,674.3,768.3,643,1003.8L643,1003.8z M680.1,1540.8c0.7,0.9,2,1.6,2.9,2.3
			c-8.3-0.6-19.4-1.4-27.7-2l-38.8-4.4l-0.4-0.1c-2.8-2.7-10.3-9.6-7.2-73.9c1.5-30.5,1.5-30.5,12.3-31.3
			c1.5-0.1,14.9-0.7,17.6,12.4c1.5-31.6,2.4-63.3,3.8-94.8c0-0.1,0-0.2,0-0.2c1.3-7.9,5.6-11.8,13.2-12l0,0l0,0l0,0l0,0l0,0l0,0l0,0
			l0,0c12.5,2.5,12.3,13.5,12.2,17.1C665.6,1486.7,674.8,1534.2,680.1,1540.8L680.1,1540.8z M736.3,1496.9
			c1.9,15.8,4.3,31.5,6.1,47.3c-13.4-0.2-31.4-0.3-44.9-0.4l0,0c-7.6-15.8-14.9-70.3-5.7-518.8c0-0.1,0-0.1,0-0.2c0-0.1,0-0.1,0-0.2
			s0-0.1,0-0.2c0-0.1,0-0.1,0-0.2s0-0.1,0-0.2c0-0.1,0-0.2,0-0.2c0-0.1,0-0.1,0-0.2c0-0.1,0-0.1,0-0.2c0.2-11.1,0.4-22.2,0.7-33.3
			c0-0.3,0-0.7,0-1c0-0.4,0-0.7,0-1s0-0.7,0-1s0-0.7,0-1s0-0.6,0-1c0-0.3,0-0.7,0-1s0-0.7,0-1s0-0.7,0-1s0-0.3,0-0.3v-1.1
			c1-13,4.2-17.8,7-18c2.4,1.5,5.7,3.5,6.7,18c0.1,1.5,0.1,1.5,0,1.6c0,0.2,0,0.2,0,0.2l0,0l0,0l0,0l0,0l0,0l0,0l0,0
			c0,1.7,0.1,3.4,0.1,5.2c0,1.7,0.1,3.4,0.1,5.1s0,3.4,0.1,5.2c0,1.7,0.1,3.4,0.1,5.1s0,3.4,0,5.1s0,3.4,0.1,5.1c0,1.7,0,3.4,0,5.1
			s0,3.4,0.1,5.1C709.3,1129.7,713.1,1307.8,736.3,1496.9L736.3,1496.9z M853.2,1534.4l-48.4,6.2l0.3-0.1c0-0.1,3.4-11.5-0.6-20.5
			c-17.9-40.4-30.5-186.4-45.1-355.4c-10.8-124.9-23-266.5-34.7-375.9c-0.1-1-0.1-1-0.1-1l0,0c-0.1-1.1-0.1-1.1-0.1-1.1
			c-0.1-0.9-0.1-0.9-0.1-1l0,0c-0.3-3.8-0.5-7.5-0.4-11.8c0.2-2,0.9-4.5,1.9-6.3c3.7,6.5,3.7,6.5,16.8,96.2
			c25.2,170.6,54,340.8,78.3,511.5c6.8,48.1,7.3,96.8,15.2,144.7C836.2,1520.1,841.2,1534,853.2,1534.4L853.2,1534.4z M943.8,1247.6
			c41.8,119.2,60.3,200.7,54.9,242.3c-1.1,8.4-1.6,12.3-90.6,34.1l2-0.7c14.5-13.9,41-75.9-26.3-351.4c-2.5-10.2,1.1-14.5,3.4-17.4
			c-8.1-26.1-20.1-51-24.5-78.2c-2.4-15.2,4.2-18.4,9.7-14.8C878.5,1065.5,880.4,1066.7,943.8,1247.6L943.8,1247.6z M1064.3,1338
			c7.9,18.5,33.7,81.2,34.7,109.9c0.2,6.3,0.2,6.3-30.2,21.1l1-1c2.8-11.1-3.8-35-10.8-58.5c4.3,20.3,10.3,48.1,7.6,56.3
			c-1.7,5.1-1.7,5.1-32.2,18.2l2.8-3.3c1.3-10.1,2.7-20.6-11-80.5c-2-8.9-4.4-20.8-6.6-29.7c-1.4-5.5-3.2-12.9-4.6-18.5l-31.3-126.4
			c-1.6-14.4,13.4-20.7,22-9.3C1007.4,1218.6,1040.5,1282.1,1064.3,1338L1064.3,1338z M1189.9,1399.8l-31.9,20.9l0,0
			c0.4-1.3,0.4-1.3,0.5-3.5c-8.9-7.6-36.1-30.5-73.5-114.4c-0.2-0.5-0.2-0.5-0.2-0.5c-2-7,0.3-12.6,7.4-17.7c0.1,0,0.1-0.1,0.1-0.1
			c8.1-3.9,13.6-2.9,17.6,3.2c0.2,0.3,0.2,0.3,0.2,0.3c13.5,28.8,23.3,46,54.5,78.4c14.1,14.6,22.5,23.5,20.8,32.4
			C1187,1399.6,1188.5,1400.3,1189.9,1399.8L1189.9,1399.8z M1343.3,1219.1c15,25.8,9.4,32.4-0.9,44.3
			c-58.4,62.2-58.4,62.2-91.8,90.1l-15.4,12.6c-0.8-1.3-1.9-2.9-2.8-4c-278.7-422.9-278.7-422.9-262.7-421
			c3.6,0.4,3.6,0.4,20.4,14.7c95.1,81,167.6,124.3,228,158.5c-19.2-24.5-20.4-25.9-13.6-35.4c0,0,0,0,0-0.1
			c5.5-4.8,11.8-4.4,17.7,1.2c0.3,0.3,0.5,0.5,0.8,0.8c0.3,0.3,0.5,0.6,0.8,0.8c0.2,0.3,0.5,0.6,0.8,0.8c0.3,0.3,0.5,0.6,0.8,0.8
			c0.3,0.3,0.5,0.6,0.8,0.8c0.2,0.3,0.5,0.6,0.8,0.8c0.3,0.3,0.5,0.6,0.8,0.8c0.3,0.3,0.5,0.6,0.8,0.9
			C1321,1187,1330.7,1197.5,1343.3,1219.1L1343.3,1219.1z M1223,921.4c236.7,169.3,209.5,215.3,194.9,239.9l-6.8,10.7l3.3-10
			c-1.9-19-2.4-24-25.1-57.7c29.1,63.7-3.5,105.2-32.2,141.7l5.1-6.6c92.4-143.2-144.8-301.3-617.3-616.4c-2.8-2.2-2.8-2.2-2.8-2.2
			l0,0l0,0l0,0l0,0l0,0l0,0l0,0c7.5,3.5,7.5,3.5,19.3,10c0,0,0,0,0.1,0c0,0,0.1,0,0.1,0.1c0,0,0,0,0.1,0h0.1h0.1c0,0,0.1,0,0.1,0.1
			h0.1c0,0,0,0,0.1,0l36.5,20.8C1038.4,791.1,1194.2,900.8,1223,921.4L1223,921.4z M1223.9,802.6c294,137.3,276.3,184.7,260.6,226.6
			l1.1-3.7c-0.7-17.5-3.3-30.1-45.1-66.6l0,0c-14.5-12-25.2-20.1-43.9-33.3c99,80.9,87.5,106.6,66.6,153l1-2.4
			c26.9-104.3-299-275.9-495.6-369c-11.1-5.2-13.5-8.4-15.4-10.9c0-1,0-1,0-1l0,0l0,0l0,0l0,0l0,0l0,0l0,0
			C971,689.8,1221.5,801.4,1223.9,802.6L1223.9,802.6z M1370.3,836.9c60.8,30.5,102.8,59.6,124.9,86.7c17.9,21.9,16.1,27.4,2.6,69.6
			c0.3-4,1.1-9.4,0.4-13.4c-6-15.2-24.3-61.6-180.2-142.3c-10.6-5.5-17-8.8-17.3-18.5c-0.2-4.9,6-11.3,16.5-7.1
			C1317.3,811.9,1343.6,823.5,1370.3,836.9L1370.3,836.9z M1536.1,816.8c1.9,8.8-9.5,69-9.7,69.6l0,0
			c0.4-19.5-18.1-62.4-145.6-131.2l0,0l0,0l0,0c-13.8-6.9-12-22-2.8-24.4C1387,728.3,1527.8,779.5,1536.1,816.8L1536.1,816.8z
			 M1368.4,676.2c104.4,25.2,133.9,47.2,160,66.6c13.5,10,13.5,10,10.1,60l0.1-1.3c-2.7-63.5-203-113.9-370.5-145
			c-12.3-2.7-17.1-7.9-16.5-11.8c2.5-3.9,5.7-5.1,13.6-5.2c1.3,0,1.3,0,1.3,0l0,0l0,0l0,0l0,0l0,0l0,0l0,0c1.5,0.1,1.6,0.2,1.6,0.2
			C1179.9,641.4,1285.6,656.2,1368.4,676.2L1368.4,676.2z M1316.3,555.1c212.2,6.5,216.9,50.2,222.4,100.8l-1-5.9
			c-9.9-20.4-33.1-68.1-272.9-75c73.8,5.7,269.8,20.9,275.6,103.1l1.1,25.9l-0.7-6.2c-9.2-39-91.6-127.8-656.5-109.7
			c-12.7,0.4-16.7-0.5-19.9-1.3C881.5,574.9,1210.9,551.8,1316.3,555.1L1316.3,555.1z M1097.6,479.5c110.9-28,225.5-37.8,299.3-25.6
			c105.9,17.6,112.4,43.8,125.2,96.2c-3.5-8.7-9.4-19.9-15.1-27.4c12.9,16.3,12.9,16.3,21.9,60.9l-1.8-7.4
			c-53.2-122.2-354.2-88-481.1-67.5c-14.3,2.3-16.4-1.6-17.4-3.6C1031.4,501,1035.2,495.3,1097.6,479.5L1097.6,479.5z M1105.9,385.6
			c121.8-55.6,217.8-88.5,271.9-92.4l2.9,0.4c42.8,9.9,46,15.9,76.5,73.3c-2.7-3.5-5.7-8.7-8.9-11.6c-17.4-11.1-70.2-44.8-288.2,34
			c55.5-15.4,170.8-47.3,252.8-31c46.6,9.3,47.3,10.9,82.1,97.8c-3.5-6.2-8.3-14.5-13-19.9c-43.2-30.3-131.9-53.3-436.4,38.1
			c-10.8,3.2-15.5,1.6-18.6,0.5c-1-1.2-1.1-1.2-1.1-1.2c1.5-17.3,182.4-75.7,272.6-91.7c-100.9,13.8-178.8,34.7-308.8,82.8
			c-11.9,4.4-15.3,3-17.7,1.9c-1.6-13.2,139.8-78,141.2-78.6C1109.2,387.7,1109.2,387.7,1105.9,385.6L1105.9,385.6z"/>
	</g>
</g>
</svg>
