<?xml version="1.0" encoding="utf-8"?>
<!-- Generator: Adobe Illustrator 19.0.0, SVG Export Plug-In . SVG Version: 6.00 Build 0)  -->
<svg version="1.1" id="Layer_1" xmlns="http://www.w3.org/2000/svg" xmlns:xlink="http://www.w3.org/1999/xlink" x="0px" y="0px"
	 width="1452.5px" height="1455.1px" viewBox="0 0 1452.5 1455.1" style="enable-background:new 0 0 1452.5 1455.1;"
	 xml:space="preserve">
<style type="text/css">
	.st0{opacity:0.2;}
	.st1{fill:#F89D43;}
</style>
<g class="st0">
	<g>
		<path class="st1" d="M902.4,1250.5c-6.4-15.3-12.2-28.4-18.7-43.4c-0.6,4.1-0.8,6.9-1.1,12c6.2,2.1,6.2,2.1,20.4,32.7
			C902.8,1251.5,902.5,1250.9,902.4,1250.5L902.4,1250.5z M557.4,1224.9c16.1-28.8,29-54.2,36-67.9
			c-60.3,97.9-107.9,162-159.2,214.3c4.4-0.3,5.5-0.1,9.1,1.4l0,0c0,0,0,0,0,0c0,0,0,0,0,0l0,0l0,0l0,0l0,0l0,0
			c4.4,2.7,6.1,5.4,6,9.7C474.2,1354.6,508.9,1311.7,557.4,1224.9L557.4,1224.9z M161.7,1130.5c0.8-0.2,1.5-0.5,2.3-0.7
			c-5.6,1.4-10.1,2.4-11.6,2.7C154.5,1132,160.8,1130.7,161.7,1130.5L161.7,1130.5z M1114.1,1239.8c-22.5-18.1-39.9-33-49.2-41
			c44.5,56.7,80.1,98.7,119.6,133.4c5.9-1.5,7.2-0.4,10.8,2.7C1188,1324.3,1133.3,1255.2,1114.1,1239.8L1114.1,1239.8z M1436,1103.6
			c-10.4,5.2-21.5,7.8-25.1,8.7c9.1-0.3,17.3-3.2,25.9-9.2C1436.5,1103.3,1436.2,1103.4,1436,1103.6L1436,1103.6z M1174.4,1153.7
			c0,0,0,0-0.1-0.1l-0.6-0.4c119.1,92.5,159.7,101.3,166.6,102.1C1333.4,1249,1333.4,1249,1174.4,1153.7
			C1174.5,1153.8,1174.5,1153.8,1174.4,1153.7L1174.4,1153.7z M1498.1,980.1c-0.9,1-122.4,92.9-479.1-8.4
			c283.5,113.2,410.1,83.4,466.4,38.5c7-8.8,8.9-11.7,12.9-22.2l5.5-16.9C1502.1,973.8,1500.2,977.7,1498.1,980.1L1498.1,980.1z
			 M496,11.6c-0.2-24.6,1.8-56.6,12.8-69.3c-15.3,10.7-18.6,24.1-19.3,28c0,0.1-0.3,11.6,6.5,44.8C496,14,496,12.6,496,11.6
			L496,11.6z M1529,868c-3.5,16.6-19.3,28.2-25.2,32.6c13.5-4.5,21.5-13.1,24-25.6l1.4-7.8C1529.1,867.4,1529.1,867.7,1529,868
			L1529,868z M-79.9,602.3c-1.1,10,5.2,18.1,11.5,24.6c-5.3-7.5-12.2-18.6-10.9-28.7l-0.6,3.6C-79.8,602-79.8,602.2-79.9,602.3
			L-79.9,602.3z M1484.7,1024.8c-41.7,81.1-249.6,38.6-312.3,23.6c90.8,35.3,145.7,41,172.1,43.8c5.4-7.3,5.4-7.3,31.3-10.1
			c14.6-1.6,88.5-11.4,107.4-53.1l2.9-7.2C1485.6,1022.7,1485.2,1023.9,1484.7,1024.8L1484.7,1024.8z M882.2,1256.1
			c3.5,202.4,4.7,270.5-22.9,274.9l43.8-8.5l33.2-8.2c29.7-8.9,29.7-8.9-54.3-265.2C882.1,1251.2,882.1,1254,882.2,1256.1
			L882.2,1256.1z M1234.4,1326c-8.7-5.2-16.8-10.4-21.1-13.2c21.6,26.8,28.6,38.3,27.7,45.5c0.5-0.2,1.1-0.6,1.5-0.9l7.7-6.3
			l14.2-12.2C1262.4,1339.4,1258.5,1340.3,1234.4,1326L1234.4,1326z M1461,1079.7c-5.5,10.3-10,13.8-16.9,19.1
			c5.5-2.8,10-5.5,13.9-12.9l3.4-7C1461.2,1079.2,1461.1,1079.5,1461,1079.7L1461,1079.7z M1323.4,1180.3
			c-37.3-10.9-75.5-26.7-91.8-33.4c55.6,41.8,125.5,76.2,151.8,60.8c0.1,0,0.1,0,0.1,0c0.1,0,0.1,0,0.1-0.1c0,0,0.1,0,0.1-0.1
			c0,0,0,0,0.1,0c0,0,0,0,0.1-0.1c0,0,0,0,0.1,0c0,0,0,0,0,0c0,0,0.1,0,0.1,0c0,0,0,0,0,0l2.1-2l9.3-13.1
			c-12.7,16.3-64-2.8-66.4-10.2C1327.4,1181.5,1325.1,1180.9,1323.4,1180.3L1323.4,1180.3z M171.4,243.9
			c8.4,11.3,14.2,18.8,35.9,46.5c0.1,0.1,0.2,0.2,0.2,0.3c0.1,0.1,0.2,0.2,0.2,0.3c0.1,0.1,0.2,0.2,0.2,0.3c0.1,0.1,0.2,0.2,0.3,0.3
			c0.1,0.1,0.1,0.3,0.2,0.4c0.1,0.1,0.2,0.2,0.3,0.3c0.1,0.1,0.2,0.2,0.3,0.3c0.1,0.1,0.2,0.2,0.3,0.3c0,0,0,0,0,0.1
			c4.7,4.3,10.5,7.9,35.4,22.7c59.7,35.6,113.5,70.8,181.5,127.3c-20.7-29.7-232.8-334.3-232.8-334.3l-42.3,39.1
			C131.2,174.4,166.8,237.5,171.4,243.9L171.4,243.9z M1365.2,1231.7c-1.8,1.1-3.3,1.5-4.4,1.9c1.9,2,1.7,2.6,1.6,2.9l5.6-7
			l-1.9,1.7l0,0C1365.7,1231.4,1365.5,1231.5,1365.2,1231.7L1365.2,1231.7z M697.5,889.5c-43.1,28.8-268.5,176.6-478.2,258.1
			c-154,59.9-175.8,24.9-190.2,1.8c28.7,47.3,264.3-40,566.3-206l25.2-13.3c30.6-16.9,59.4-37,91.5-51.1
			C708.1,882.3,706.7,883.4,697.5,889.5L697.5,889.5z M388.1,1282.1c-120.8,122.9-170,82.3-188.5,67.1l-9.1-7.8
			c3.8,2.2,8.5,5.7,12.7,7.2c67.7,20.8,170.4-81.4,190.3-102.1c-179.6,119.7-216.7,83.2-252.5,48l6.7,5.6
			c35.2,15.9,94.8,13.5,359.5-219.6c-189.6,139.8-293.1,172.7-294.2,173c-88.2,27.2-100.3,11.8-140.3-39.1l0.2,0.2
			c88.9,85.1,315.6-81.2,390.1-135.8C119.4,1283.6,72,1214.1,43.7,1172.6l7.1,8.3c80.3,54,333.9-59.4,531.7-193.4
			c7-4.7,10.2-5.9,12.8-6.8c0.4,0.8,0.9,1.8,1.3,2.6c-8.8,12.6-94.8,82.2-121,103.3c55.8-38,90.1-63.7,141.3-105.9
			c6.4-5.2,9.2-6.7,11.5-7.9c0.3,0.8,0.6,1.8,0.9,2.5c-11.3,17-209.8,215.7-332.4,302.7c50.1-24.5,83.8-45.3,139-85.9
			c10.2-7.5,18.9-5.2,16.8,4.4C450.4,1206.6,430.8,1238.7,388.1,1282.1L388.1,1282.1z M487.4,1231.1L487.4,1231.1
			c-38.3,46.8-96.2,117.5-162.2,152.9c-47.1,25.3-60,15.7-98.4-12.8l4,2.8c52,23.1,122.3-21.5,242.8-153.7
			C487.1,1205.5,499.8,1215.5,487.4,1231.1L487.4,1231.1z M578.9,1217.4c-52.1,105.3-100.7,176.2-148.5,216.8
			c-42.1,35.7-45.8,33.8-107.9,0.9c3.6,1.1,8.4,3.3,12.2,3.6c20.4-2.6,32.7-4.1,74.5-44.6c-41.3,32.6-73.5,48.8-106.6,29.3
			l-22.9-14.4l0.8,0.6c71.4,38.6,204.9-93.6,366.2-362.8c5.5-9.1,7.9-11.1,10.3-13c0.5,0.8,1.2,1.8,1.7,2.5
			C655.8,1051,601.7,1171.3,578.9,1217.4L578.9,1217.4z M464.2,1485.2c-9.4,10.2-9.4,10.2-43.8-2.9c4-0.1,9.3-1.4,12.9-3.3
			c4.2-3.3,7.1-6.4,11.9-12.5c-30.7,13.8-30.7,13.8-73-5.5l9.6,2.9c13.9-0.3,42.8-0.8,93.4-51.1c1.5-1.5,6.2-6.1,14.4-4
			c4.7,1.2,11.3,5.6,9.1,12.4C498.5,1421.6,480.1,1467.8,464.2,1485.2L464.2,1485.2z M715.1,1075.5
			c-28.5,184.5-55.1,272.2-88.8,353.9c-41.6,101.1-66.9,95.2-93.7,88.9l-11.4-2.9l0.6,0.1c65.3-1.4,127.1-201,150.6-286.8
			C584,1533.6,535.8,1519.8,480,1503.7c2.8,0,6.6,0.7,9.2,0c22.6-11.2,48.8-42.6,78-93.2c4.6-8,9-15.6,20.7-10.6
			c14.2-26.9,40.5-77,76.9-195.9c29.7-96.8,47.2-196.6,73.3-294.2C738.7,921.6,719,1049.9,715.1,1075.5L715.1,1075.5z M669.4,1481.3
			c-8.6,45.2-21,52.5-25.1,54.9c-14.8,8.7-39.9-4-56.9-6.4l2.9,0.2c8-2.5,26.6-8.4,57.9-76.2c8.4-18.2,22.5-7.1,24.3-4.9
			C673.8,1450.7,674.9,1452.2,669.4,1481.3L669.4,1481.3z M734.6,1511.9c-1.3,17.9-4.3,27.9-8.8,29.7c-16.7,6.7-42-1.4-60-2.1
			c4.9-1.3,11.1-4.8,14.9-8.1c8.8-13.8,17.9-28.1,29.4-79.4c1.3-5.9,2.7-12,13.6-12.6l0,0C733,1440.4,739.8,1441.1,734.6,1511.9
			L734.6,1511.9z M832.6,1226.8c5.9,16.4,28.9,185.4,18,249.3c-10,58.6-10,58.6-71.5,64.1l-22.3,1.1c2.4-0.9,5.9-1.4,8-2.9
			c24.8-26.2,39.5-95.8,43.6-207c0.2-4,2.5-14,11.5-11.3c2.2-31.9-4.3-63.7-1.3-95.7c0.8-8.4,5.8-10.6,10.5-4.5
			C830.2,1221.4,831.8,1224.4,832.6,1226.8L832.6,1226.8z M923.4,1254.7c68.7,146.7,66.7,173.4,61.8,238
			c-0.6,7.6-0.8,10.8-82.1,29.8c-22.1,4-51.5,9.8-73.7,12.9l6.6-3.4c13.5-17.4,28.8-37.1,27.6-258.4
			C863,1125.8,867.5,1135.5,923.4,1254.7L923.4,1254.7z M986.1,1317.8c25.9,46.3,51.4,95.6,62.3,142.2c3.3,14.1,3.3,14.1-23.3,25.1
			l-16.4,6.3l4.6-3c12.1-26,0.6-62.8-55.7-179c-0.9-1.8-4.8-10.8,3.3-15.9c0,0,0,0,0,0l0,0c0,0,0,0,0,0l0,0l0,0l0,0c0,0,0,0,0,0l0,0
			C970.8,1290.3,973.1,1294.5,986.1,1317.8L986.1,1317.8z M1117.6,1397.8c22,23.5,26.8,27.2,29.8,26.5c-1.4,0.8-3.2,1.9-4.7,2.8
			l-22.9,13.1l-0.2,0.1c-3-0.6-5.7-2.8-26.1-27c14.6,26.6,16.2,29.8,17,32c-8.4,4.3-19.6,10-28,14.3c-0.5-2.1-1.5-4.8-2.3-6.8
			c-11-24.6-29.6-63-55.3-114.1c-0.3-0.5-0.5-1.3-0.7-1.8c-2.7-8.8,6.5-16.5,15.8-13.3C1051.6,1327.5,1083.7,1361.7,1117.6,1397.8
			L1117.6,1397.8z M1288.8,1310.4c2.6-0.3,6-1.7,8.5-2.5c-14.1,12.9-32.5,30.8-47.2,43.1c-17.5,13.5-40.4,31.9-58.4,44.6l-1.5-0.5
			c-0.9-1.2-2-2.7-2.9-3.9c-7.4-9.8-6.7-23.1-14.1-32.9c-4-5.3-11.4-10.7-16.4-15.3c-40.6-38-107.3-132.5-132.4-168.1
			c-36.4-51.6-36.4-51.6-25.9-51.5c5.1,0.1,9.8,4.1,18.4,11.6c-52.4-56-106.9-109.9-160.1-165c-1.2-1.3-1.2-1.3-1.2-1.3c0,0,0,0,0,0
			c-6-6.4-7.5-8.6-9.8-12.2c-0.7-2.4-0.7-2.4-0.7-2.4l0,0l0,0c0,0,0,0,0,0l0,0l0,0l0,0l0,0l0,0l0,0l0,0l0,0
			c4.1,1.5,4.1,1.5,10.6,6.8c1.7,1.5,1.7,1.5,1.7,1.5l0,0c1.5,1.3,3,2.7,4.4,4c0,0.1,0,0.1,0,0.1
			C972.1,1071.4,1229.9,1317.1,1288.8,1310.4L1288.8,1310.4z M1388.5,1167.2c20.9,0.8,25.1-3.8,28.2-7.1
			c-21.2,31.1-51.1,71.5-74.6,100.8l-13.4,15l-2.7,1.6c-34.6,2.5-277.7-185.8-260-201.5c3.4-3,3.4-3,120.9,61.6
			c0.2,0.1,0.3,0.2,0.5,0.3c0.1,0.1,0.3,0.2,0.5,0.3c0.6,0.3,1.4,0.7,2,1.1c-16-23.3-16-23.3-16.1-24.3c-0.4-4.6,5-8.8,13.4-7.5
			c2.4,0.4,2.4,0.4,21.1,7.6C1240.4,1127.6,1338.6,1165.4,1388.5,1167.2L1388.5,1167.2z M1492.7,962.6c6.4-4.3,14.2-11.5,18.7-17.8
			c-9.7,30.9-23.7,71.9-35.6,102.1c-9.3,19.8-21.4,46.5-31.7,65.9l-2.9,4.4c-29,21.2-36.5,20.4-46.9,19.4
			c-15.6-1.6-25-14.8-38.5-20.3c-31.2-12.7-65.5-8.6-97.3-17.8c-80.2-23.2-189.1-76.9-196.7-90.6c0.1-2.2,0.1-2.2,0.1-2.2
			c0.8-0.5,1.9-1.2,2.7-1.7c-51.6-36.2-118.1-41-168.6-79.5c4.2-2,4.2-2,11,0.4C1311.6,1064.7,1491.1,963.7,1492.7,962.6
			L1492.7,962.6z M1533.5,839.1c0.2-0.6,0.2-1.4,0.3-2c-3.6,20.4-7.8,47.6-12.3,67.8l0,0.2c-5.2,11.7-9,20.1-24.9,23.7
			c-22.1,4.9-43.8-4-45.7-7.9c-3.1-6.4,1.1-19.2,9-22.7C1491.9,883.9,1524.9,869.2,1533.5,839.1L1533.5,839.1z M1540,675.6
			L1540,675.6l1.3,30l0,1.9c-0.8,9.5-2.3,13.9-7.7,22.4c2.2-0.1,5.2,0.3,7.2,0.9c0.2-1.6,0.5-3.7,0.7-5.3
			c-0.5,16.2-1.3,37.7-1.8,53.8l-1.4,7.5c-12.9,28.3-70,61.7-75.4,44.1c-0.4-1.3-0.4-3.2-0.6-4.6c-248.9,68.6-620.7,36.3-623.8,35.8
			c3-2,3-2,11.6-2c285.1,1.3,609.4-46.4,680.4-100c-115.4,16.6-226.2,55.1-341.9,70.3c-161.8,21.2-360.7,24.6-370.7,22.9
			c3.3-0.9,6.2-1.6,20.6-2.7c139.2-10.5,479.6-42.4,632-109.6c0.5-0.3,0.6-0.3,0.6-0.3C1478.3,738.3,1540.8,716.8,1540,675.6
			L1540,675.6z M1518.9,541c0-3.2-0.8-7.5-1.1-10.6c2.1,9.2,4.9,21.5,7,30.7c0.1,6.6,0,15.4-1.6,21.8
			c-8.5,17.3-28.5,57.9-141.6,113.4c111.2-50.7,146.7-83.4,151-91.7c1.2,9.1,2.8,21.4,4,30.5l-0.5,1.3
			c-61.3,70.7-439.5,191.4-459.7,163.8c2.7-5.5,2.7-5.5,33.4-16.4C1381.3,686.8,1518.9,605.1,1518.9,541L1518.9,541z M1462.3,385.4
			c0-4.4-0.7-10.5-2.4-14.5c7.8,17.7,18.1,41.2,25.8,58.9l0.7,2.2c2.2,40.7-98,126.9-192.5,194.1c177.9-101,200.9-154.8,198.7-177.9
			c1.7,4.8,3.9,11.1,5.6,15.8l4.5,13.7l0.3,1.1c0.2,28.2-34,65.5-101.8,110.8c-36.7,24.5-202.9,116-214.6,100.8
			c-4.2-5.5-4.2-5.5,116.2-98.1c-27.5,15.7-29.1,16.6-36,8.6c-0.1-0.2-0.1-0.2-0.1-0.2c-2.7-9.7-2.7-9.7,43.5-44
			C1369,513.1,1462.1,428.2,1462.3,385.4L1462.3,385.4z M1433.4,322.7c-1-2.7-2.7-6.2-3.9-8.8c9.1,17,21.2,39.6,30.3,56.6l0.9,3.1
			c-1.2,58.8-312.3,277.7-331.8,264.4c-1.1-1.3-1.1-1.3-1.1-1.3l0,0l0,0l0,0l0,0c0,0,0,0,0,0l0,0l0,0c-0.9-9.2-0.9-9.2,35.7-34.6
			C1459.8,396.2,1439.9,340.9,1433.4,322.7L1433.4,322.7z M979.1,598.6c192.3-227.6,344.3-407.3,303-469.1
			c6.7,6.5,15.6,15.2,22.4,21.7l3.2,4c5.4,14.1,6,18.5,0.9,42.2c13.9-14.2,15.6-15.2,21.3-18.3c4.4,4.7,10.3,11,14.7,15.7l10.1,12
			l1.3,1.8c9.1,21.2,6,57.7-147.6,224.6c91.3-84.5,174.8-170.7,178.8-184.3c5.4,7.9,12.7,18.4,18.2,26.3l0.1,0.5
			c-13.7,34-320.6,302.8-349.3,306c-1-1-2.3-2.3-3.3-3.2c0.9-8.4,0.9-8.4,27.4-36.8c223.9-240,247.8-304.7,256.8-329.1
			c-0.6,0.6-67.1,65.9-138.7,157.3c-28.9,36.8-276.7,321.8-298.7,326.8C900.6,691.3,900.6,691.3,979.1,598.6L979.1,598.6z
			 M1151.9,279c96.2-172.2,88.4-181.8,79.4-193c6.4,5.2,14.9,12.1,21.2,17.3l10.6,9.1l0.3,0.4c-1.5,32.2-5.1,107.6-330.3,519.6
			c-1.9,2.4-2.4,3-2.9,3.7c-1,1.3-2.1,2.6-3.1,4c-10.6,13.3-13.5,17-22.5,28.2l0,0c-11,13-13.5,13-16.2,12.9c0.6-4.2,1.1-7,9.3-18.6
			l0,0l0,0l0,0l0,0l0,0l0,0l0,0l0,0l0,0l0,0l0,0l0,0l0.1,0l0,0l0,0c0,0,0,0,0,0c0.2-0.4,0.5-0.7,0.7-1c0.3-0.4,0.5-0.7,0.8-1
			c0.2-0.3,0.5-0.7,0.7-1c0.2-0.3,0.5-0.7,0.8-1c0.2-0.3,0.5-0.6,0.8-1c0.2-0.3,0.5-0.7,0.7-1c0.2-0.3,0.5-0.6,0.7-1
			c0.3-0.4,0.5-0.7,0.8-1C1007.1,515,1090.6,388.8,1151.9,279L1151.9,279z M1068.6,251.4c81.5-185.2,81.2-219.4,70.2-228.5
			c3.1,1.9,7.4,4.4,10.5,6.3l21.8,13.6l0.3,0.3c4.2,6.9-11.6,108.9-186.8,425.8l0,0l0,0l0,0c0,0.1,0,0.1,0,0.1c0,0-0.1,0.1-0.1,0.1
			l-0.1,0.1l0,0.1c-6.6,10.7-10,11.8-14.3,13.1c-1.6-0.4-1.6-0.4-1.6-0.4s0,0,0,0l0,0c0,0,0,0,0,0s0,0,0,0l0,0c0,0,0,0,0,0l0,0
			c-1.2-1.8-4.3-6.4,0.1-16.4C999.9,393.1,1036.9,323.5,1068.6,251.4L1068.6,251.4z M1061.6,64.4c8.8-40.9,13.2-69.9,5.9-78.5
			c8,3.8,18.5,8.8,26.5,12.5l2.8,2.1c7,10.1,25.8,36.7-105.4,344.1c-2.5,5.2-7.8,13.5-15.4,11.3c-0.5-0.3-1.1-0.8-1.5-1.1
			c-0.4-0.4-0.4-0.4-0.4-0.4c-2.2-4-4.3-7.7-0.7-18.5l0,0l0,0l0,0l0,0l0,0l0,0l0,0l0,0c5.4-14.2,12.6-33.2,17.9-47.4
			C1007.7,243.4,1045.7,138.1,1061.6,64.4L1061.6,64.4z M945.1,229.2c67.3-259.7,59-266,50.3-272.6c9.1,3.4,21.3,7.9,30.4,11.2
			l0.1,0c8.5,14.4,7.9,17.2-7.6,89.1c0,0.1,0,0.2,0,0.3c0,0.1,0,0.1,0,0.2c0,0.1-0.1,0.2-0.1,0.2c0,0.1,0,0.1,0,0.2
			c0,0-0.1,0.1,0,0.2c0,0.1,0,0.2,0,0.2c0,0.1,0,0.2,0,0.2c0,0.1,0,0.2,0,0.2C987.9,207.3,891,478.9,836,627.6c-1,2.7-2,5.4-3,8.2
			c-1,2.7-2,5.5-3.1,8.2c-1,2.8-2,5.5-3.1,8.2c-1,2.8-2,5.5-3.1,8.3c-1,2.7-2.1,5.5-3.1,8.3c-1,2.7-2.1,5.5-3.1,8.3
			c-1,2.7-2.1,5.5-3.1,8.3c-1,2.7-2.1,5.5-3.1,8.3l0,0l0,0l0,0l0,0l0,0l0,0l0,0l0,0l0,0l0,0l0,0l0,0l0,0l0,0l0,0l0,0l0,0.1l0,0l0,0
			l0,0l0,0l0,0l0,0l0,0c-4.3,10.9-5.9,13.4-8.9,18.1c-1.7-4.5-2-5.3,4.5-24.5C863.1,519.8,909.7,365.7,945.1,229.2L945.1,229.2z
			 M809.5,451.2C877-57.3,877-57.3,886.5-71.5c9.9,1.6,23.1,3.9,33,5.5l26.4,6.9l-0.4,0.2C933-35.3,933-35.3,898.6,169l0,0l0,0l0,0
			l0,0l0,0c0,0,0,0,0,0l0,0l0,0l0,0l0,0l0,0l0,0l0,0l0,0l0,0l0,0l0,0l0,0l0,0l0,0l0,0l0,0l0,0c0,0,0,0,0,0
			c-1.5,4.2-5,14.2-14.9,11.5c-1.8-1-4.1-2.6-5.6-4.1c-1.5,2.6-9.7,20.6-24.7,119.7c-18.2,120.1-63,371.5-72.5,394.5
			C778.2,686.7,778.2,686.7,809.5,451.2L809.5,451.2z M772.4-85.8c-0.7-0.9-2-1.6-2.9-2.3c8.3,0.6,19.4,1.4,27.7,2l38.8,4.4l0.4,0.1
			c2.8,2.7,10.3,9.6,7.2,73.9c-1.5,30.5-1.5,30.5-12.3,31.3c-1.5,0.1-14.9,0.7-17.6-12.4c-1.5,31.6-2.4,63.3-3.8,94.8
			c0,0.1,0,0.2,0,0.2c-1.3,7.9-5.6,11.8-13.2,12l0,0l0,0l0,0l0,0l0,0l0,0l0,0l0,0c-12.5-2.5-12.3-13.5-12.2-17.1
			C786.9-31.7,777.7-79.2,772.4-85.8L772.4-85.8z M716.2-41.9c-1.9-15.8-4.3-31.5-6.1-47.3c13.4,0.2,31.4,0.3,44.9,0.4l0,0
			c7.6,15.8,14.9,70.3,5.7,518.8c0,0.1,0,0.1,0,0.2c0,0.1,0,0.1,0,0.2c0,0.1,0,0.1,0,0.2c0,0.1,0,0.1,0,0.2c0,0.1,0,0.1,0,0.2
			c0,0.1,0,0.2,0,0.2c0,0.1,0,0.1,0,0.2c0,0.1,0,0.1,0,0.2c-0.2,11.1-0.4,22.2-0.7,33.3c0,0.3,0,0.7,0,1c0,0.4,0,0.7,0,1
			c0,0.3,0,0.7,0,1c0,0.3,0,0.7,0,1c0,0.3,0,0.6,0,1c0,0.3,0,0.7,0,1c0,0.3,0,0.7,0,1c0,0.3,0,0.7,0,1c0,0.3,0,0.3,0,0.3l0,1.1
			c-1,13-4.2,17.8-7,18c-2.4-1.5-5.7-3.5-6.7-18c-0.1-1.5-0.1-1.5,0-1.6c0-0.2,0-0.2,0-0.2l0,0c0,0,0,0,0,0l0,0c0,0,0,0,0,0l0,0l0,0
			l0,0c0-1.7-0.1-3.4-0.1-5.2c0-1.7-0.1-3.4-0.1-5.1c0-1.7,0-3.4-0.1-5.2c0-1.7-0.1-3.4-0.1-5.1c0-1.7,0-3.4,0-5.1
			c0-1.7,0-3.4-0.1-5.1c0-1.7,0-3.4,0-5.1c0-1.7,0-3.4-0.1-5.1C743.2,325.3,739.4,147.2,716.2-41.9L716.2-41.9z M599.3-79.4
			l48.4-6.2l-0.3,0.1c0,0.1-3.4,11.5,0.6,20.5c17.9,40.4,30.5,186.4,45.1,355.4c10.8,124.9,23,266.5,34.7,375.9c0.1,1,0.1,1,0.1,1
			l0,0c0.1,1.1,0.1,1.1,0.1,1.1c0.1,0.9,0.1,0.9,0.1,1l0,0c0.3,3.8,0.5,7.5,0.4,11.8c-0.2,2-0.9,4.5-1.9,6.3
			c-3.7-6.5-3.7-6.5-16.8-96.2c-25.2-170.6-54-340.8-78.3-511.5c-6.8-48.1-7.3-96.8-15.2-144.7C616.3-65.1,611.3-79,599.3-79.4
			L599.3-79.4z M508.7,207.4C466.9,88.2,448.4,6.7,453.8-34.9c1.1-8.4,1.6-12.3,90.6-34.1l-2,0.7c-14.5,13.9-41,75.9,26.3,351.4
			c2.5,10.2-1.1,14.5-3.4,17.4c8.1,26.1,20.1,51,24.5,78.2c2.4,15.2-4.2,18.4-9.7,14.8C574,389.5,572.1,388.3,508.7,207.4
			L508.7,207.4z M388.2,117c-7.9-18.5-33.7-81.2-34.7-109.9c-0.2-6.3-0.2-6.3,30.2-21.1l-1,1c-2.8,11.1,3.8,35,10.8,58.5
			c-4.3-20.3-10.3-48.1-7.6-56.3c1.7-5.1,1.7-5.1,32.2-18.2l-2.8,3.3c-1.3,10.1-2.7,20.6,11,80.5c2,8.9,4.4,20.8,6.6,29.7
			c1.4,5.5,3.2,12.9,4.6,18.5l31.3,126.4c1.6,14.4-13.4,20.7-22,9.3C445.1,236.4,412,172.9,388.2,117L388.2,117z M262.6,55.2
			l31.9-20.9l0,0c-0.4,1.3-0.4,1.3-0.5,3.5c8.9,7.6,36.1,30.5,73.5,114.4c0.2,0.5,0.2,0.5,0.2,0.5c2,7-0.3,12.6-7.4,17.7
			c-0.1,0-0.1,0.1-0.1,0.1c-8.1,3.9-13.6,2.9-17.6-3.2c-0.2-0.3-0.2-0.3-0.2-0.3c-13.5-28.8-23.3-46-54.5-78.4
			c-14.1-14.6-22.5-23.5-20.8-32.4C265.5,55.4,264,54.7,262.6,55.2L262.6,55.2z M109.2,235.9c-15-25.8-9.4-32.4,0.9-44.3
			c58.4-62.2,58.4-62.2,91.8-90.1l15.4-12.6c0.8,1.3,1.9,2.9,2.8,4c278.7,422.9,278.7,422.9,262.7,421c-3.6-0.4-3.6-0.4-20.4-14.7
			c-95.1-81-167.6-124.3-228-158.5c19.2,24.5,20.4,25.9,13.6,35.4c0,0,0,0,0,0.1c-5.5,4.8-11.8,4.4-17.7-1.2
			c-0.3-0.3-0.5-0.5-0.8-0.8c-0.3-0.3-0.5-0.6-0.8-0.8c-0.2-0.3-0.5-0.6-0.8-0.8c-0.3-0.3-0.5-0.6-0.8-0.8c-0.3-0.3-0.5-0.6-0.8-0.8
			c-0.2-0.3-0.5-0.6-0.8-0.8c-0.3-0.3-0.5-0.6-0.8-0.8c-0.3-0.3-0.5-0.6-0.8-0.9C131.5,268,121.8,257.5,109.2,235.9L109.2,235.9z
			 M229.5,533.6C-7.2,364.3,20,318.3,34.6,293.7l6.8-10.7l-3.3,10c1.9,19,2.4,24,25.1,57.7c-29.1-63.7,3.5-105.2,32.2-141.7
			l-5.1,6.6C-2.1,358.8,235.1,516.9,707.6,832c2.8,2.2,2.8,2.2,2.8,2.2l0,0l0,0l0,0l0,0l0,0l0,0l0,0c-7.5-3.5-7.5-3.5-19.3-10
			c0,0,0,0-0.1,0c0,0-0.1,0-0.1-0.1c0,0,0,0-0.1,0c0,0-0.1,0-0.1,0c0,0-0.1,0-0.1,0c0,0-0.1,0-0.1-0.1c0,0-0.1,0-0.1,0
			c0,0,0,0-0.1,0l-36.5-20.8C414.1,663.9,258.3,554.2,229.5,533.6L229.5,533.6z M228.6,652.4C-65.4,515.1-47.7,467.7-32,425.8
			l-1.1,3.7c0.7,17.5,3.3,30.1,45.1,66.6c0,0,0,0,0,0c14.5,12,25.2,20.1,43.9,33.3c-99-80.9-87.5-106.6-66.6-153l-1,2.4
			c-26.9,104.3,299,275.9,495.6,369c11.1,5.2,13.5,8.4,15.4,10.9c0,1,0,1,0,1l0,0l0,0l0,0l0,0l0,0l0,0l0,0
			C481.5,765.2,231,653.6,228.6,652.4L228.6,652.4z M82.2,618.1c-60.8-30.5-102.8-59.6-124.9-86.7c-17.9-21.9-16.1-27.4-2.6-69.6
			c-0.3,4-1.1,9.4-0.4,13.4c6,15.2,24.3,61.6,180.2,142.3c10.6,5.5,17,8.8,17.3,18.5c0.2,4.9-6,11.3-16.5,7.1
			C135.2,643.1,108.9,631.5,82.2,618.1L82.2,618.1z M-83.6,638.2c-1.9-8.8,9.5-69,9.7-69.6l0,0c-0.4,19.5,18.1,62.4,145.6,131.2
			c0,0,0,0,0,0l0,0l0,0c13.8,6.9,12,22,2.8,24.4C65.5,726.7-75.3,675.5-83.6,638.2L-83.6,638.2z M84.1,778.8
			c-104.4-25.2-133.9-47.2-160-66.6c-13.5-10-13.5-10-10.1-60l-0.1,1.3c2.7,63.5,203,113.9,370.5,145c12.3,2.7,17.1,7.9,16.5,11.8
			c-2.5,3.9-5.7,5.1-13.6,5.2c-1.3,0-1.3,0-1.3,0l0,0l0,0l0,0l0,0l0,0l0,0l0,0c-1.5-0.1-1.6-0.2-1.6-0.2
			C272.6,813.6,166.9,798.8,84.1,778.8L84.1,778.8z M136.2,899.9C-76,893.4-80.7,849.7-86.2,799.1l1,5.9
			c9.9,20.4,33.1,68.1,272.9,75c-73.8-5.7-269.8-20.9-275.6-103.1L-89,751l0.7,6.2c9.2,39,91.6,127.8,656.5,109.7
			c12.7-0.4,16.7,0.5,19.9,1.3C571,880.1,241.6,903.2,136.2,899.9L136.2,899.9z M354.9,975.5c-110.9,28-225.5,37.8-299.3,25.6
			c-105.9-17.6-112.4-43.8-125.2-96.2c3.5,8.7,9.4,19.9,15.1,27.4c-12.9-16.3-12.9-16.3-21.9-60.9l1.8,7.4
			c53.2,122.2,354.2,88,481.1,67.5c14.3-2.3,16.4,1.6,17.4,3.6C421.1,954,417.3,959.7,354.9,975.5L354.9,975.5z M346.6,1069.4
			c-121.8,55.6-217.8,88.5-271.9,92.4l-2.9-0.4c-42.8-9.9-46-15.9-76.5-73.3c2.7,3.5,5.7,8.7,8.9,11.6c17.4,11.1,70.2,44.8,288.2-34
			c-55.5,15.4-170.8,47.3-252.8,31c-46.6-9.3-47.3-10.9-82.1-97.8c3.5,6.2,8.3,14.5,13,19.9c43.2,30.3,131.9,53.3,436.4-38.1
			c10.8-3.2,15.5-1.6,18.6-0.5c1,1.2,1.1,1.2,1.1,1.2c-1.5,17.3-182.4,75.7-272.6,91.7c100.9-13.8,178.8-34.7,308.8-82.8
			c11.9-4.4,15.3-3,17.7-1.9c1.6,13.2-139.8,78-141.2,78.6C343.3,1067.3,343.3,1067.3,346.6,1069.4L346.6,1069.4z"/>
	</g>
</g>
</svg>
