<svg version="1.1" id="Layer_1" xmlns="http://www.w3.org/2000/svg" xmlns:xlink="http://www.w3.org/1999/xlink" x="0px" y="0px"
	 viewBox="0 0 44.5 36.7" enable-background="new 0 0 44.5 36.7" xml:space="preserve">
<g>
	<path fill="#FFEAC6" d="M33.6,26.5c-2.6,3.4-6.7,5.5-11,5.5l-0.5,0.2L22,35.4l0.6,0.4c5.6,0,10.5-2.6,13.7-6.6L33.6,26.5z"/>
	<path fill="#FFD38E" d="M8.9,29.1c3.2,4,8.1,6.6,13.7,6.6v-3.7c-4.4,0-8.3-2.1-10.8-5.3L11,26.7l-1.9,1.9L8.9,29.1z"/>
	<path fill="#3BA8DF" d="M33.4,10c1.7,2.3,2.8,5.3,2.8,8.4l1.9,1.4l1.8-1.4c0-4.2-1.5-8-3.9-11L34.3,7L33,8.2L33.4,10z"/>
	<path fill="#BDE6FA" d="M22.5,4.6c-4.5,0-8.5,2.2-11,5.5L8.9,7.4c3.2-4,8.2-6.5,13.6-6.5l1.1,0.6l-0.4,2.7L22.5,4.6z"/>
	<path fill="#3BA8DF" d="M17.5,18.9l0-1.3c0-0.4,0.2-0.6,0.6-0.6l3,0l0-3.3c0-0.4,0.2-0.6,0.6-0.6l1.3,0c0.4,0,0.6,0.2,0.6,0.6
		l0,3.3l2.8,0c0.4,0,0.6,0.2,0.6,0.6l0,1.3c0,0.4-0.2,0.6-0.6,0.6l-2.8,0l0,3.2c0,0.4-0.2,0.6-0.6,0.6l-1.3,0
		c-0.4,0-0.6-0.2-0.6-0.6l0-3.2l-3,0C17.7,19.6,17.5,19.4,17.5,18.9z"/>
	<path fill="#89B3C8" d="M22.3,30.2"/>
	<polygon fill="#8FD8F8" points="8.8,18.3 5.1,18.3 8.8,18.4 	"/>
	<path fill="#89CBEC" d="M33.4,10C30.9,6.6,27,4.6,22.5,4.6V0.9C28,0.9,32.8,3.4,36,7.3L33.4,10z"/>
	<polygon fill="#3BA8DF" points="34.4,18.3 34.4,18.3 32.2,18.3 37.8,23.9 43.4,18.3 41.1,18.3 41.1,18.3 	"/>
	<polygon fill="#F0BE70" points="9.1,19 10.5,19 12.8,19 7,13.1 1.1,19 4.2,19 4.3,19 4.8,19 	"/>
	<path fill="#F0BE70" d="M11.7,26.8c-1.8-2.3-2.9-5.3-2.9-8.5l-3.7,0c0,4.1,1.4,8,4,11.1L11.7,26.8z"/>
</g>
</svg>
